<svg width="18" height="18" viewBox="0 0 18 18" fill="none" xmlns="http://www.w3.org/2000/svg">
<path d="M14.0602 11.4143L16.7297 14.0839C16.8154 14.1691 16.8834 14.2704 16.9297 14.382C16.9761 14.4936 17 14.6133 17 14.7341C17 14.855 16.9761 14.9746 16.9297 15.0862C16.8834 15.1978 16.8154 15.2991 16.7297 15.3844C15.791 16.3233 14.5451 16.892 13.2207 16.9861C11.8963 17.0802 10.5825 16.6933 9.52045 15.8965L7.93261 14.7049C6.17486 13.3866 4.61341 11.8251 3.2951 10.0674L2.10347 8.47955C1.30667 7.41752 0.919788 6.10367 1.01387 4.77931C1.10795 3.45494 1.67668 2.20898 2.61561 1.27025C2.70086 1.1846 2.80218 1.11663 2.91378 1.07025C3.02537 1.02387 3.14502 1 3.26587 1C3.38671 1 3.50637 1.02387 3.61796 1.07025C3.72955 1.11663 3.83088 1.1846 3.91613 1.27025L6.58571 3.93984C6.77471 4.1289 6.88089 4.38528 6.88089 4.65261C6.88089 4.91993 6.77471 5.17631 6.58571 5.36537L5.55639 6.39469C5.47605 6.47423 5.423 6.5772 5.40489 6.68879C5.38677 6.80039 5.40452 6.91485 5.45557 7.01572C6.65167 9.40832 8.59168 11.3483 10.9843 12.5444C11.0852 12.5955 11.1996 12.6132 11.3112 12.5951C11.4228 12.577 11.5258 12.524 11.6053 12.4436L12.6336 11.4153C12.7273 11.3216 12.8384 11.2472 12.9608 11.1965C13.0832 11.1457 13.2144 11.1196 13.3469 11.1196C13.4794 11.1196 13.6106 11.1457 13.733 11.1965C13.8553 11.2472 13.9665 11.3216 14.0602 11.4153V11.4143Z" stroke="#666666" stroke-width="1.25"/>
</svg>
