<svg width="30" height="28" viewBox="0 0 30 28" fill="none" xmlns="http://www.w3.org/2000/svg">
<path d="M15.2 25.04C9.56 25.04 5 20.784 5 15.52C5 10.256 9.56 6 15.2 6C20.84 6 25.4 10.256 25.4 15.52C25.4 20.784 20.84 25.04 15.2 25.04ZM15.2 7.12C10.22 7.12 6.2 10.872 6.2 15.52C6.2 20.168 10.22 23.92 15.2 23.92C20.18 23.92 24.2 20.168 24.2 15.52C24.2 10.872 20.18 7.12 15.2 7.12Z" fill="white"/>
<path d="M14.22 19.896L9 15.024L9.84 14.24L14.22 18.328L21 12L21.84 12.784L14.22 19.896Z" fill="white"/>
</svg>
