<svg width="30" height="30" viewBox="0 0 30 30" fill="none" xmlns="http://www.w3.org/2000/svg">
<path d="M21.5625 7.5H26.25M3.75 7.5H17.8125M21.5625 22.5H26.25M3.75 22.5H17.8125M12.1875 15H26.25M3.75 15H8.4375" stroke="#FF5593" stroke-width="1.875" stroke-linecap="round" stroke-linejoin="round"/>
<path d="M19.6875 9.375C20.723 9.375 21.5625 8.53553 21.5625 7.5C21.5625 6.46447 20.723 5.625 19.6875 5.625C18.652 5.625 17.8125 6.46447 17.8125 7.5C17.8125 8.53553 18.652 9.375 19.6875 9.375Z" stroke="#FF5593" stroke-width="1.875" stroke-linecap="round" stroke-linejoin="round"/>
<path d="M10.3125 16.875C11.348 16.875 12.1875 16.0355 12.1875 15C12.1875 13.9645 11.348 13.125 10.3125 13.125C9.27697 13.125 8.4375 13.9645 8.4375 15C8.4375 16.0355 9.27697 16.875 10.3125 16.875Z" stroke="#FF5593" stroke-width="1.875" stroke-linecap="round" stroke-linejoin="round"/>
<path d="M19.6875 24.375C20.723 24.375 21.5625 23.5355 21.5625 22.5C21.5625 21.4645 20.723 20.625 19.6875 20.625C18.652 20.625 17.8125 21.4645 17.8125 22.5C17.8125 23.5355 18.652 24.375 19.6875 24.375Z" stroke="#FF5593" stroke-width="1.875" stroke-linecap="round" stroke-linejoin="round"/>
</svg>
