<svg width="18" height="21" viewBox="0 0 18 21" fill="none" xmlns="http://www.w3.org/2000/svg">
<path fill-rule="evenodd" clip-rule="evenodd" d="M4.62738 2.36977C4.68205 1.85629 4.92315 1.38131 5.30433 1.03615C5.68551 0.690994 6.17986 0.500037 6.69231 0.5H11.3077C11.8201 0.500037 12.3145 0.690994 12.6957 1.03615C13.0769 1.38131 13.318 1.85629 13.3726 2.36977C14.0778 2.38465 14.6862 2.42093 15.2068 2.51767C15.9065 2.64791 16.5018 2.89349 16.9865 3.38279C17.5422 3.94186 17.7803 4.64791 17.8929 5.48512C18 6.2907 18 7.31674 18 8.58837V14.2721C18 15.5437 18 16.5698 17.8929 17.3763C17.7803 18.2135 17.5422 18.9186 16.9865 19.4786C16.4308 20.0386 15.7311 20.2786 14.9003 20.3921C14.1 20.5 13.0818 20.5 11.82 20.5H6.18C4.91815 20.5 3.9 20.5 3.09969 20.3921C2.26892 20.2786 1.56923 20.0386 1.01354 19.4786C0.457846 18.9186 0.219692 18.2135 0.108 17.3763C9.62844e-08 16.5698 0 15.5437 0 14.2721V8.58837C0 7.31674 9.62844e-08 6.2907 0.108 5.48419C0.218769 4.64698 0.458769 3.94186 1.01354 3.38186C1.49815 2.89349 2.09354 2.64698 2.79323 2.51767C3.31385 2.42093 3.92308 2.38465 4.62738 2.36977ZM4.62923 3.76512C3.96646 3.78 3.45508 3.81349 3.04338 3.88977C2.52092 3.98651 2.21723 4.14279 1.99292 4.36884C1.73723 4.62651 1.57108 4.98744 1.47969 5.67116C1.38646 6.37256 1.38462 7.30465 1.38462 8.63953V14.2209C1.38462 15.5558 1.38646 16.487 1.47969 17.1902C1.57108 17.873 1.73815 18.234 1.99292 18.4916C2.24862 18.7493 2.60677 18.9167 3.28523 19.0088C3.98123 19.1028 4.90615 19.1047 6.23077 19.1047H11.7692C13.0938 19.1047 14.0178 19.1028 14.7157 19.0088C15.3932 18.9167 15.7514 18.7484 16.0071 18.4916C16.2628 18.234 16.4289 17.873 16.5203 17.1893C16.6135 16.487 16.6154 15.5558 16.6154 14.2209V8.63953C16.6154 7.30465 16.6135 6.37256 16.5203 5.67023C16.4289 4.98744 16.2618 4.62651 16.0071 4.36884C15.7818 4.14279 15.4791 3.98744 14.9566 3.88977C14.5449 3.81349 14.0335 3.78 13.3708 3.76605C13.3117 4.27568 13.0689 4.74569 12.6886 5.08679C12.3083 5.42789 11.8168 5.61632 11.3077 5.61628H6.69231C6.18302 5.6163 5.69148 5.42774 5.31112 5.08644C4.93075 4.74515 4.68808 4.27491 4.62923 3.76512ZM6.69231 1.89535C6.5087 1.89535 6.33261 1.96885 6.20277 2.09969C6.07294 2.23053 6 2.40799 6 2.59302V3.52326C6 3.90837 6.31015 4.22093 6.69231 4.22093H11.3077C11.4913 4.22093 11.6674 4.14743 11.7972 4.01659C11.9271 3.88575 12 3.70829 12 3.52326V2.59302C12 2.40799 11.9271 2.23053 11.7972 2.09969C11.6674 1.96885 11.4913 1.89535 11.3077 1.89535H6.69231ZM3.69231 9.10465C3.69231 8.91962 3.76525 8.74216 3.89508 8.61132C4.02491 8.48048 4.201 8.40698 4.38462 8.40698H4.84615C5.02977 8.40698 5.20586 8.48048 5.33569 8.61132C5.46552 8.74216 5.53846 8.91962 5.53846 9.10465C5.53846 9.28969 5.46552 9.46714 5.33569 9.59798C5.20586 9.72882 5.02977 9.80233 4.84615 9.80233H4.38462C4.201 9.80233 4.02491 9.72882 3.89508 9.59798C3.76525 9.46714 3.69231 9.28969 3.69231 9.10465ZM6.92308 9.10465C6.92308 8.91962 6.99602 8.74216 7.12585 8.61132C7.25568 8.48048 7.43177 8.40698 7.61538 8.40698H13.6154C13.799 8.40698 13.9751 8.48048 14.1049 8.61132C14.2348 8.74216 14.3077 8.91962 14.3077 9.10465C14.3077 9.28969 14.2348 9.46714 14.1049 9.59798C13.9751 9.72882 13.799 9.80233 13.6154 9.80233H7.61538C7.43177 9.80233 7.25568 9.72882 7.12585 9.59798C6.99602 9.46714 6.92308 9.28969 6.92308 9.10465ZM3.69231 12.3605C3.69231 12.1754 3.76525 11.998 3.89508 11.8671C4.02491 11.7363 4.201 11.6628 4.38462 11.6628H4.84615C5.02977 11.6628 5.20586 11.7363 5.33569 11.8671C5.46552 11.998 5.53846 12.1754 5.53846 12.3605C5.53846 12.5455 5.46552 12.723 5.33569 12.8538C5.20586 12.9846 5.02977 13.0581 4.84615 13.0581H4.38462C4.201 13.0581 4.02491 12.9846 3.89508 12.8538C3.76525 12.723 3.69231 12.5455 3.69231 12.3605ZM6.92308 12.3605C6.92308 12.1754 6.99602 11.998 7.12585 11.8671C7.25568 11.7363 7.43177 11.6628 7.61538 11.6628H13.6154C13.799 11.6628 13.9751 11.7363 14.1049 11.8671C14.2348 11.998 14.3077 12.1754 14.3077 12.3605C14.3077 12.5455 14.2348 12.723 14.1049 12.8538C13.9751 12.9846 13.799 13.0581 13.6154 13.0581H7.61538C7.43177 13.0581 7.25568 12.9846 7.12585 12.8538C6.99602 12.723 6.92308 12.5455 6.92308 12.3605ZM3.69231 15.6163C3.69231 15.4312 3.76525 15.2538 3.89508 15.1229C4.02491 14.9921 4.201 14.9186 4.38462 14.9186H4.84615C5.02977 14.9186 5.20586 14.9921 5.33569 15.1229C5.46552 15.2538 5.53846 15.4312 5.53846 15.6163C5.53846 15.8013 5.46552 15.9788 5.33569 16.1096C5.20586 16.2404 5.02977 16.314 4.84615 16.314H4.38462C4.201 16.314 4.02491 16.2404 3.89508 16.1096C3.76525 15.9788 3.69231 15.8013 3.69231 15.6163ZM6.92308 15.6163C6.92308 15.4312 6.99602 15.2538 7.12585 15.1229C7.25568 14.9921 7.43177 14.9186 7.61538 14.9186H13.6154C13.799 14.9186 13.9751 14.9921 14.1049 15.1229C14.2348 15.2538 14.3077 15.4312 14.3077 15.6163C14.3077 15.8013 14.2348 15.9788 14.1049 16.1096C13.9751 16.2404 13.799 16.314 13.6154 16.314H7.61538C7.43177 16.314 7.25568 16.2404 7.12585 16.1096C6.99602 15.9788 6.92308 15.8013 6.92308 15.6163Z" fill="black"/>
</svg>
