<svg width="8" height="8" viewBox="0 0 8 8" fill="none" xmlns="http://www.w3.org/2000/svg">
<path d="M4 3.42802C3.52876 3.42802 3.12514 3.26002 2.78914 2.92402C2.45314 2.58802 2.28533 2.18459 2.28571 1.71373C2.2861 1.24287 2.4539 0.839064 2.78914 0.502302C3.12438 0.16554 3.528 -0.00188869 4 1.60694e-05C4.472 0.00192083 4.87562 0.16954 5.21086 0.502873C5.5461 0.836206 5.7139 1.24002 5.71429 1.7143C5.71467 2.18859 5.54686 2.59202 5.21086 2.92459C4.87486 3.25716 4.47124 3.42459 4 3.42802ZM0 7.56002V6.61944C0 6.38364 0.0685715 6.16306 0.205714 5.95773C0.343238 5.75202 0.528 5.5924 0.76 5.47887C1.29943 5.22021 1.83924 5.0263 2.37943 4.89716C2.91924 4.76764 3.45943 4.70287 4 4.70287C4.54057 4.70287 5.08095 4.76764 5.62114 4.89716C6.16133 5.02668 6.70076 5.22059 7.23943 5.47887C7.47181 5.5924 7.65657 5.75202 7.79371 5.95773C7.93124 6.16306 8 6.38364 8 6.61944V7.56002H0ZM0.571429 6.98859H7.42857V6.61944C7.42857 6.49297 7.38762 6.37392 7.30571 6.2623C7.22419 6.15106 7.11124 6.05697 6.96686 5.98002C6.49676 5.75221 6.01181 5.57773 5.512 5.45659C5.01219 5.33544 4.50819 5.27468 4 5.2743C3.49181 5.27392 2.98781 5.33449 2.488 5.45602C1.98819 5.57754 1.50324 5.75202 1.03314 5.97944C0.888381 6.0564 0.775429 6.15049 0.694286 6.26173C0.612381 6.37335 0.571429 6.49259 0.571429 6.61944V6.98859ZM4 2.85716C4.31429 2.85716 4.58343 2.74516 4.80743 2.52116C5.03143 2.29716 5.14324 2.02783 5.14286 1.71316C5.14248 1.39849 5.03067 1.12954 4.80743 0.906302C4.58419 0.683064 4.31505 0.571064 4 0.570302C3.68495 0.56954 3.416 0.68154 3.19314 0.906302C2.97029 1.13106 2.85829 1.40002 2.85714 1.71316C2.856 2.0263 2.968 2.29544 3.19314 2.52059C3.41829 2.74573 3.68724 2.85754 4 2.85602" fill="#666666"/>
</svg>
