<svg width="10" height="10" viewBox="0 0 10 10" fill="none" xmlns="http://www.w3.org/2000/svg">
<path d="M7.14939 2.85154C6.98691 2.689 6.89177 2.47112 6.88301 2.24146C6.87424 2.01181 6.9525 1.78731 7.10212 1.61287C7.1145 1.59836 7.12093 1.57971 7.12013 1.56065C7.11934 1.5416 7.11137 1.52356 7.09783 1.51013L6.23591 0.64724C6.22166 0.633 6.20235 0.625 6.1822 0.625C6.16206 0.625 6.14274 0.633 6.12849 0.64724L4.75466 2.02107C4.70396 2.07174 4.66578 2.13353 4.64314 2.20154C4.62057 2.2697 4.58244 2.33166 4.53175 2.38252C4.48107 2.43337 4.41923 2.47171 4.35115 2.49451C4.2831 2.51718 4.22125 2.55536 4.17048 2.60603L0.64724 6.12849C0.633 6.14274 0.625 6.16206 0.625 6.1822C0.625 6.20235 0.633 6.22166 0.64724 6.23591L1.50915 7.09783C1.52258 7.11137 1.54063 7.11934 1.55968 7.12013C1.57873 7.12093 1.59738 7.1145 1.61189 7.10212C1.7863 6.95234 2.01084 6.87396 2.24058 6.88267C2.47031 6.89138 2.68828 6.98654 2.85084 7.14911C3.01341 7.31167 3.10857 7.52964 3.11728 7.75937C3.12599 7.9891 3.04761 8.21365 2.89783 8.38806C2.88545 8.40257 2.87902 8.42122 2.87981 8.44027C2.88061 8.45932 2.88858 8.47737 2.90212 8.49079L3.76404 9.35271C3.77828 9.36695 3.7976 9.37495 3.81775 9.37495C3.83789 9.37495 3.85721 9.36695 3.87146 9.35271L7.3949 5.82947C7.44557 5.7787 7.48374 5.71685 7.50642 5.6488C7.52898 5.58064 7.56712 5.51868 7.61781 5.46782C7.66849 5.41697 7.73033 5.37863 7.79841 5.35583C7.86642 5.3332 7.92821 5.29501 7.97888 5.24431L9.35271 3.87048C9.36695 3.85623 9.37495 3.83692 9.37495 3.81677C9.37495 3.79663 9.36695 3.77731 9.35271 3.76306L8.49079 2.90115C8.47737 2.8876 8.45932 2.87963 8.44027 2.87884C8.42122 2.87804 8.40257 2.88447 8.38806 2.89685C8.21386 3.04673 7.9895 3.12532 7.75985 3.11692C7.53019 3.10852 7.31218 3.01374 7.14939 2.85154Z" stroke="#666666" stroke-miterlimit="10"/>
<path d="M4.89253 2.74287L4.57007 2.42041M5.75229 3.60264L5.53726 3.38779M6.61206 4.4626L6.39722 4.24756M7.57944 5.42979L7.25698 5.10732" stroke="#666666" stroke-miterlimit="10" stroke-linecap="round"/>
</svg>
