<svg width="22" height="18" viewBox="0 0 20 16" fill="none" xmlns="http://www.w3.org/2000/svg">
<path d="M13 1V2.91667M13 6.75V8.66667M13 12.5V14.4167M3 1H17C17.5304 1 18.0391 1.20193 18.4142 1.56138C18.7893 1.92082 19 2.40834 19 2.91667V5.79167C18.4696 5.79167 17.9609 5.9936 17.5858 6.35305C17.2107 6.71249 17 7.2 17 7.70833C17 8.21667 17.2107 8.70418 17.5858 9.06362C17.9609 9.42307 18.4696 9.625 19 9.625V12.5C19 13.0083 18.7893 13.4958 18.4142 13.8553C18.0391 14.2147 17.5304 14.4167 17 14.4167H3C2.46957 14.4167 1.96086 14.2147 1.58579 13.8553C1.21071 13.4958 1 13.0083 1 12.5V9.625C1.53043 9.625 2.03914 9.42307 2.41421 9.06362C2.78929 8.70418 3 8.21667 3 7.70833C3 7.2 2.78929 6.71249 2.41421 6.35305C2.03914 5.9936 1.53043 5.79167 1 5.79167V2.91667C1 2.40834 1.21071 1.92082 1.58579 1.56138C1.96086 1.20193 2.46957 1 3 1Z" stroke="black" stroke-width="2" stroke-linecap="round" stroke-linejoin="round"/>
</svg>
