<svg width="8" height="8" viewBox="0 0 8 8" fill="none" xmlns="http://www.w3.org/2000/svg">
<g clip-path="url(#clip0_327_421)">
<path d="M3.41433 5.43789L2 4.02322L2.47133 3.55189L3.41433 4.49455L5.29967 2.60889L5.77133 3.08055L3.41433 5.43789Z" fill="#00DC04"/>
<path fill-rule="evenodd" clip-rule="evenodd" d="M0.333328 3.99992C0.333328 1.97492 1.975 0.333252 3.99999 0.333252C6.02499 0.333252 7.66666 1.97492 7.66666 3.99992C7.66666 6.02492 6.02499 7.66659 3.99999 7.66659C1.975 7.66659 0.333328 6.02492 0.333328 3.99992ZM3.99999 6.99992C3.60603 6.99992 3.21592 6.92232 2.85194 6.77156C2.48797 6.62079 2.15725 6.39981 1.87867 6.12124C1.6001 5.84266 1.37912 5.51195 1.22836 5.14797C1.07759 4.78399 0.999995 4.39388 0.999995 3.99992C0.999995 3.60595 1.07759 3.21585 1.22836 2.85187C1.37912 2.48789 1.6001 2.15717 1.87867 1.8786C2.15725 1.60002 2.48797 1.37904 2.85194 1.22828C3.21592 1.07752 3.60603 0.999919 3.99999 0.999919C4.79564 0.999919 5.55871 1.31599 6.12132 1.8786C6.68392 2.44121 7 3.20427 7 3.99992C7 4.79557 6.68392 5.55863 6.12132 6.12124C5.55871 6.68385 4.79564 6.99992 3.99999 6.99992Z" fill="#00DC04"/>
</g>
<defs>
<clipPath id="clip0_327_421">
<rect width="8" height="8" fill="white"/>
</clipPath>
</defs>
</svg>
