<svg width="8" height="8" viewBox="0 0 8 8" fill="none" xmlns="http://www.w3.org/2000/svg">
<path d="M1.99999 1.33341H1.33333V0.666748H6.66666V1.33341H6V2.00008C6 2.53841 5.72799 2.97175 5.38533 3.32575C5.151 3.56775 4.86599 3.79075 4.57699 4.00008C4.86599 4.20941 5.151 4.43241 5.38533 4.67441C5.72799 5.02841 6 5.46175 6 6.00008V6.66675H6.66666V7.33341H1.33333V6.66675H1.99999V6.00008C1.99999 5.46175 2.27199 5.02841 2.61466 4.67441C2.84899 4.43241 3.13399 4.20941 3.423 4.00008C3.13399 3.79075 2.84899 3.56775 2.61466 3.32575C2.27199 2.97175 1.99999 2.53841 1.99999 2.00008V1.33341ZM2.66666 1.33341V2.00008C2.66666 2.22841 2.75333 2.44508 2.92366 2.66675H5.07633C5.24633 2.44508 5.33333 2.22841 5.33333 2.00008V1.33341H2.66666ZM3.99999 4.40741C3.65166 4.65341 3.33599 4.88775 3.09366 5.13808C3.03342 5.2 2.97667 5.26521 2.92366 5.33341H5.07633C5.02332 5.26521 4.96657 5.2 4.90633 5.13808C4.664 4.88775 4.34833 4.65341 3.99999 4.40741Z" fill="#7A7A7A"/>
</svg>
