<svg width="27" height="27" viewBox="0 0 27 27" fill="none" xmlns="http://www.w3.org/2000/svg">
<path d="M13.0833 7.1665C9.83333 7.1665 7.25 9.74984 7.25 12.9998C7.25 16.2498 9.83333 18.8332 13.0833 18.8332C16.3333 18.8332 18.9167 16.2498 18.9167 12.9998C18.9167 9.74984 16.3333 7.1665 13.0833 7.1665ZM13.0833 17.1665C10.75 17.1665 8.91667 15.3332 8.91667 12.9998C8.91667 10.6665 10.75 8.83317 13.0833 8.83317C15.4167 8.83317 17.25 10.6665 17.25 12.9998C17.25 15.3332 15.4167 17.1665 13.0833 17.1665Z" fill="#FF5593"/>
<path d="M25.6667 10.5833L23.3333 9.83333L22.8333 8.58333L24 6.41667C24.25 5.91667 24.1667 5.25 23.75 4.83333L21.75 2.83333C21.3333 2.41667 20.6667 2.33333 20.1667 2.58333L18 3.75L16.75 3.25L16 0.916667C15.8333 0.416667 15.3333 0 14.75 0H11.9167C11.3333 0 10.8333 0.416667 10.75 1L10 3.33333C9.5 3.41667 9.08333 3.58333 8.66667 3.83333L6.5 2.66667C6 2.41667 5.33333 2.5 4.91667 2.91667L2.91667 4.91667C2.5 5.33333 2.41667 6 2.66667 6.5L3.75 8.58333C3.58333 9 3.41667 9.5 3.25 9.91667L0.916667 10.6667C0.416667 10.8333 0 11.3333 0 11.9167V14.75C0 15.3333 0.416667 15.8333 1 16L3.33333 16.75L3.83333 18L2.66667 20.1667C2.41667 20.6667 2.5 21.3333 2.91667 21.75L4.91667 23.75C5.33333 24.1667 6 24.25 6.5 24L8.66667 22.8333L9.91667 23.3333L10.6667 25.75C10.8333 26.25 11.3333 26.6667 11.9167 26.6667H14.75C15.3333 26.6667 15.8333 26.25 16 25.75L16.75 23.3333L18 22.8333L20.1667 24C20.6667 24.25 21.3333 24.1667 21.75 23.75L23.75 21.75C24.1667 21.3333 24.25 20.6667 24 20.1667L22.8333 18L23.3333 16.75L25.75 16C26.25 15.8333 26.6667 15.3333 26.6667 14.75V11.9167C26.6667 11.3333 26.25 10.75 25.6667 10.5833ZM25 14.5L22 15.4167L21.9167 15.8333L21.1667 17.5833L20.9167 18L22.4167 20.75L20.75 22.4167L18 20.9167L17.5833 21.1667C17 21.5 16.4167 21.75 15.8333 21.9167L15.4167 22L14.5 25H12.1667L11.25 22L10.8333 21.9167L9.08333 21.1667L8.66667 20.9167L5.91667 22.4167L4.25 20.75L5.75 18L5.5 17.5833C5.16667 17 4.91667 16.4167 4.75 15.8333L4.66667 15.4167L1.66667 14.5V12.1667L4.5 11.3333L4.66667 10.9167C4.83333 10.25 5.08333 9.66667 5.41667 9.08333L5.66667 8.66667L4.25 5.91667L5.91667 4.25L8.58333 5.75L9 5.5C9.58333 5.16667 10.1667 4.91667 10.8333 4.75L11.25 4.58333L12.1667 1.66667H14.5L15.4167 4.58333L15.8333 4.75C16.4167 4.91667 17 5.16667 17.5833 5.5L18 5.75L20.75 4.25L22.4167 5.91667L20.9167 8.66667L21.1667 9.08333C21.5 9.66667 21.75 10.25 21.9167 10.8333L22 11.25L25 12.1667V14.5Z" fill="#FF5593"/>
</svg>
