<svg width="33" height="33" viewBox="0 0 33 33" fill="none" xmlns="http://www.w3.org/2000/svg">
<path d="M16.603 9.28125C12.5812 9.28125 9.38428 12.4781 9.38428 16.5C9.38428 20.5219 12.5812 23.7188 16.603 23.7188C20.6249 23.7188 23.8218 20.5219 23.8218 16.5C23.8218 12.4781 20.6249 9.28125 16.603 9.28125ZM16.603 21.6563C13.7155 21.6563 11.4468 19.3875 11.4468 16.5C11.4468 13.6125 13.7155 11.3438 16.603 11.3438C19.4905 11.3438 21.7593 13.6125 21.7593 16.5C21.7593 19.3875 19.4905 21.6563 16.603 21.6563Z" fill="black"/>
<path d="M31.7625 13.0969L28.875 12.1688L28.2562 10.6219L29.7 7.94062C30.0094 7.32187 29.9062 6.49688 29.3906 5.98125L26.9156 3.50625C26.4 2.99063 25.575 2.8875 24.9563 3.19687L22.275 4.64062L20.7281 4.02188L19.8 1.13437C19.5938 0.515625 18.975 0 18.2531 0H14.7469C14.025 0 13.4062 0.515625 13.3031 1.2375L12.375 4.125C11.7562 4.22813 11.2406 4.43437 10.725 4.74375L8.04375 3.3C7.425 2.99062 6.6 3.09375 6.08438 3.60938L3.60938 6.08438C3.09375 6.6 2.99062 7.425 3.3 8.04375L4.64062 10.6219C4.43437 11.1375 4.22813 11.7562 4.02188 12.2719L1.13437 13.2C0.515625 13.4063 0 14.025 0 14.7469V18.2531C0 18.975 0.515625 19.5938 1.2375 19.8L4.125 20.7281L4.74375 22.275L3.3 24.9563C2.99062 25.575 3.09375 26.4 3.60938 26.9156L6.08438 29.3906C6.6 29.9062 7.425 30.0094 8.04375 29.7L10.725 28.2562L12.2719 28.875L13.2 31.8656C13.4063 32.4844 14.025 33 14.7469 33H18.2531C18.975 33 19.5938 32.4844 19.8 31.8656L20.7281 28.875L22.275 28.2562L24.9563 29.7C25.575 30.0094 26.4 29.9062 26.9156 29.3906L29.3906 26.9156C29.9062 26.4 30.0094 25.575 29.7 24.9563L28.2562 22.275L28.875 20.7281L31.8656 19.8C32.4844 19.5938 33 18.975 33 18.2531V14.7469C33 14.025 32.4844 13.3031 31.7625 13.0969ZM30.9375 17.9437L27.225 19.0781L27.1219 19.5938L26.1937 21.7594L25.8844 22.275L27.7406 25.6781L25.6781 27.7406L22.275 25.8844L21.7594 26.1937C21.0375 26.6062 20.3156 26.9156 19.5938 27.1219L19.0781 27.225L17.9437 30.9375H15.0563L13.9219 27.225L13.4062 27.1219L11.2406 26.1937L10.725 25.8844L7.32188 27.7406L5.25937 25.6781L7.11562 22.275L6.80625 21.7594C6.39375 21.0375 6.08437 20.3156 5.87812 19.5938L5.775 19.0781L2.0625 17.9437V15.0563L5.56875 14.025L5.775 13.5094C5.98125 12.6844 6.29062 11.9625 6.70312 11.2406L7.0125 10.725L5.25937 7.32188L7.32188 5.25937L10.6219 7.11562L11.1375 6.80625C11.8594 6.39375 12.5812 6.08437 13.4062 5.87812L13.9219 5.67188L15.0563 2.0625H17.9437L19.0781 5.67188L19.5938 5.87812C20.3156 6.08437 21.0375 6.39375 21.7594 6.80625L22.275 7.11562L25.6781 5.25937L27.7406 7.32188L25.8844 10.725L26.1937 11.2406C26.6062 11.9625 26.9156 12.6844 27.1219 13.4062L27.225 13.9219L30.9375 15.0563V17.9437Z" fill="black"/>
</svg>
