<svg width="33" height="36" viewBox="0 0 32 23" fill="none" xmlns="http://www.w3.org/2000/svg">
<path d="M22.9669 2.15611V3.31222M22.9669 7.93667V9.09278M22.9669 13.7172V14.8733M22.9669 19.4978V20.6539M9.09308 12.5611H17.1862M9.09308 16.0294H13.7177M2.73423 1C1.77694 1 1 1.77691 1 2.73417V7.39869C1.70409 7.80406 2.28892 8.38782 2.69557 9.09116C3.10221 9.7945 3.31632 10.5926 3.31632 11.405C3.31632 12.2174 3.10221 13.0155 2.69557 13.7188C2.28892 14.4222 1.70409 15.0059 1 15.4113V20.0758C1 21.0331 1.77694 21.81 2.73423 21.81H29.3258C30.2831 21.81 31.06 21.0331 31.06 20.0758V15.4113C30.3559 15.0059 29.7711 14.4222 29.3644 13.7188C28.9578 13.0155 28.7437 12.2174 28.7437 11.405C28.7437 10.5926 28.9578 9.7945 29.3644 9.09116C29.7711 8.38782 30.3559 7.80406 31.06 7.39869V2.73417C31.06 1.77691 30.2831 1 29.3258 1H2.73423Z" stroke="black" stroke-width="1.5" stroke-linecap="round" stroke-linejoin="round"/>
</svg>
