<svg width="26" height="18" viewBox="0 0 26 18" fill="none" xmlns="http://www.w3.org/2000/svg">
<path d="M18.25 2V2.875M18.25 6.375V7.25M18.25 10.75V11.625M18.25 15.125V16M7.75 9.875H13.875M7.75 12.5H11.25M2.9375 1.125C2.213 1.125 1.625 1.713 1.625 2.4375V5.96783C2.15787 6.27464 2.60048 6.71645 2.90824 7.24877C3.216 7.78109 3.37804 8.38512 3.37804 9C3.37804 9.61488 3.216 10.2189 2.90824 10.7512C2.60048 11.2835 2.15787 11.7254 1.625 12.0322V15.5625C1.625 16.287 2.213 16.875 2.9375 16.875H23.0625C23.787 16.875 24.375 16.287 24.375 15.5625V12.0322C23.8421 11.7254 23.3995 11.2835 23.0918 10.7512C22.784 10.2189 22.622 9.61488 22.622 9C22.622 8.38512 22.784 7.78109 23.0918 7.24877C23.3995 6.71645 23.8421 6.27464 24.375 5.96783V2.4375C24.375 1.713 23.787 1.125 23.0625 1.125H2.9375Z" stroke="black" stroke-width="1.5" stroke-linecap="round" stroke-linejoin="round"/>
</svg>
