<svg width="21" height="21" viewBox="0 0 21 21" fill="none" xmlns="http://www.w3.org/2000/svg">
<path d="M4.1788 16.1037C1.59292 14.5468 0 12.0929 0 9.38604C0.000999952 4.68227 4.74877 0.981445 10.5005 0.981445C16.2522 0.981445 21 4.68227 21 9.38604C21 14.0898 16.2522 17.7906 10.5005 17.7906C10.0585 17.7906 9.61921 17.769 9.18256 17.7256L5.41774 20.1835C4.80277 20.5095 4.46079 20.6085 3.93281 20.2495C3.31284 19.8255 3.33684 19.3576 3.55083 18.6896L4.1788 16.1037ZM1.9999 9.38604C1.9999 11.5179 3.41784 13.5088 5.78073 14.7058L6.48669 15.0648L6.3007 15.8347L5.89972 17.4827L8.69959 15.6527L9.06457 15.6987C9.53855 15.7601 10.0169 15.7907 10.4995 15.7907C15.2403 15.7907 18.9991 12.8609 18.9991 9.38604C18.9991 5.91121 15.2413 2.98135 10.5005 2.98135C5.75973 2.98135 1.9999 5.91121 1.9999 9.38604ZM16.4072 9.04006L17.9211 11.195C17.9568 11.2457 17.9821 11.303 17.9956 11.3635C18.0091 11.4241 18.0106 11.4867 17.9999 11.5478C17.9892 11.6089 17.9666 11.6673 17.9334 11.7196C17.9001 11.772 17.8569 11.8173 17.8062 11.8529C17.7554 11.8886 17.6981 11.9139 17.6376 11.9274C17.5771 11.9409 17.5145 11.9424 17.4534 11.9317C17.3923 11.921 17.3339 11.8984 17.2815 11.8652C17.2291 11.8319 17.1838 11.7887 17.1482 11.7379L15.7203 9.70503L15.2933 10.118V11.4809C15.2933 11.6061 15.2435 11.7262 15.155 11.8147C15.0665 11.9032 14.9465 11.9529 14.8213 11.9529C14.6961 11.9529 14.5761 11.9032 14.4876 11.8147C14.399 11.7262 14.3493 11.6061 14.3493 11.4809V10.042C14.3327 9.96895 14.3327 9.89309 14.3493 9.82002V7.26315C14.3493 7.13797 14.399 7.01792 14.4876 6.92941C14.5761 6.8409 14.6961 6.79117 14.8213 6.79117C14.9465 6.79117 15.0665 6.8409 15.155 6.92941C15.2435 7.01792 15.2933 7.13797 15.2933 7.26315V8.80507L17.2212 6.93916C17.312 6.85729 17.4311 6.81388 17.5533 6.81806C17.6755 6.82224 17.7913 6.87369 17.8764 6.96157C17.9614 7.04945 18.009 7.16691 18.0091 7.28919C18.0093 7.41147 17.962 7.52904 17.8771 7.61713L16.4072 9.04006ZM13.4494 10.965C13.5745 10.965 13.6946 11.0147 13.7831 11.1032C13.8716 11.1917 13.9213 11.3118 13.9213 11.4369C13.9213 11.5621 13.8716 11.6822 13.7831 11.7707C13.6946 11.8592 13.5745 11.9089 13.4494 11.9089H11.5175C11.4555 11.9091 11.3941 11.8969 11.3368 11.8732C11.2796 11.8496 11.2275 11.8148 11.1838 11.7709C11.14 11.7271 11.1053 11.675 11.0818 11.6176C11.0582 11.5603 11.0462 11.4989 11.0465 11.4369V7.27815C11.0435 7.2144 11.0536 7.15073 11.0759 7.09097C11.0983 7.03121 11.1326 6.9766 11.1766 6.93046C11.2207 6.88431 11.2737 6.84758 11.3323 6.82248C11.391 6.79739 11.4541 6.78445 11.518 6.78445C11.5818 6.78445 11.6449 6.79739 11.7036 6.82248C11.7622 6.84758 11.8152 6.88431 11.8593 6.93046C11.9034 6.9766 11.9376 7.03121 11.96 7.09097C11.9823 7.15073 11.9924 7.2144 11.9894 7.27815V10.965H13.4494ZM7.59264 9.87402H8.92658L8.28861 8.1661L7.59264 9.87402ZM10.1155 10.361L10.4605 11.286C10.4843 11.3444 10.4962 11.4071 10.4953 11.4703C10.4945 11.5334 10.481 11.5958 10.4556 11.6536C10.4303 11.7114 10.3936 11.7636 10.3477 11.807C10.3018 11.8504 10.2476 11.8841 10.1885 11.9062C10.1293 11.9283 10.0663 11.9383 10.0032 11.9356C9.94011 11.9329 9.87819 11.9175 9.82113 11.8905C9.76407 11.8634 9.71302 11.8252 9.67101 11.778C9.62899 11.7308 9.59687 11.6757 9.57654 11.6159L9.27856 10.817H7.20866L6.87667 11.6299C6.85323 11.6873 6.81872 11.7395 6.7751 11.7836C6.73149 11.8276 6.67962 11.8626 6.62247 11.8867C6.56532 11.9107 6.504 11.9232 6.44201 11.9235C6.38003 11.9238 6.31859 11.9119 6.2612 11.8884C6.20382 11.865 6.15161 11.8305 6.10756 11.7869C6.06352 11.7432 6.02849 11.6914 6.00449 11.6342C5.98049 11.5771 5.96798 11.5158 5.96767 11.4538C5.96737 11.3918 5.97927 11.3303 6.00271 11.273L7.66464 7.19815C7.71568 7.06647 7.80536 6.95331 7.9219 6.87354C8.03843 6.79376 8.17638 6.75111 8.3176 6.75117C8.45793 6.75697 8.59314 6.80546 8.70518 6.89016C8.81721 6.97485 8.90073 7.09172 8.94457 7.22515L9.99053 10.025C10.0718 10.1118 10.1172 10.2261 10.1175 10.345L10.1155 10.361ZM6.79368 7.28315C6.79368 7.54313 6.58369 7.75512 6.3227 7.75512H5.18275V11.4909C5.18275 11.6163 5.13298 11.7364 5.04437 11.825C4.95576 11.9136 4.83558 11.9634 4.71028 11.9634C4.58497 11.9634 4.46479 11.9136 4.37618 11.825C4.28758 11.7364 4.2378 11.6163 4.2378 11.4909V7.75512H3.07785C2.95268 7.75512 2.83263 7.7054 2.74412 7.61688C2.6556 7.52837 2.60588 7.40832 2.60588 7.28315C2.60588 7.15797 2.6556 7.03792 2.74412 6.94941C2.83263 6.86089 2.95268 6.81117 3.07785 6.81117H6.3227C6.58269 6.81117 6.79368 7.02216 6.79368 7.28315Z" fill="black" fill-opacity="0.8"/>
</svg>
