<svg width="20" height="18" viewBox="0 0 20 18" fill="none" xmlns="http://www.w3.org/2000/svg">
<path d="M10.2455 18C9.94528 18 9.64503 17.8799 9.40483 17.6547C7.8135 16.0934 2.5291 10.764 1.16296 8.13678C0.217171 6.33528 0.277221 4.0834 1.29807 2.38699C2.21383 0.870725 3.80516 0 5.6517 0C7.99365 0 9.44986 1.21601 10.2455 2.44704C11.0412 1.21601 12.4974 0 14.8394 0C16.6859 0 18.2772 0.870725 19.193 2.38699C20.2138 4.0834 20.2739 6.33528 19.3281 8.13678C17.9469 10.779 12.6776 16.0934 11.0862 17.6547C10.846 17.8949 10.5458 18 10.2455 18ZM5.6517 1.48624C4.3306 1.48624 3.23469 2.07173 2.58915 3.15263C1.82351 4.39867 1.79348 6.08007 2.49907 7.43119C3.4899 9.32277 7.10791 13.256 10.2605 16.3786C13.3982 13.256 17.0312 9.33778 18.022 7.43119C18.7276 6.08007 18.6826 4.39867 17.9319 3.15263C17.2864 2.07173 16.1905 1.48624 14.8694 1.48624C11.6867 1.48624 11.0412 4.33862 11.0112 4.45872H9.53994C9.50992 4.33862 8.83435 1.48624 5.68172 1.48624H5.6517Z" fill="#666666"/>
</svg>
