<svg width="16" height="15" viewBox="0 0 16 15" fill="none" xmlns="http://www.w3.org/2000/svg">
<path d="M8 14.7627C7.75375 14.7627 7.5075 14.6642 7.3105 14.4795C6.00537 13.199 1.67137 8.82807 0.550934 6.67338C-0.224754 5.19588 -0.175504 3.349 0.661747 1.95769C1.41281 0.714125 2.71794 0 4.23237 0C6.15312 0 7.34744 0.997313 8 2.00694C8.65256 0.997313 9.84688 0 11.7676 0C13.2821 0 14.5872 0.714125 15.3383 1.95769C16.1755 3.349 16.2248 5.19588 15.4491 6.67338C14.3163 8.84038 9.99463 13.199 8.6895 14.4795C8.4925 14.6765 8.24625 14.7627 8 14.7627ZM4.23237 1.21894C3.14887 1.21894 2.25006 1.69913 1.72062 2.58563C1.09268 3.60756 1.06806 4.98656 1.64675 6.09469C2.45937 7.64607 5.42669 10.8719 8.01231 13.4329C10.5856 10.8719 13.5653 7.65838 14.3779 6.09469C14.9566 4.98656 14.9196 3.60756 14.304 2.58563C13.7746 1.69913 12.8758 1.21894 11.7923 1.21894C9.182 1.21894 8.65256 3.55831 8.62794 3.65681H7.42131C7.39669 3.55831 6.84262 1.21894 4.257 1.21894H4.23237Z" fill="#666666"/>
</svg>
