<svg width="15" height="16" viewBox="0 0 15 16" fill="none" xmlns="http://www.w3.org/2000/svg">
<path fill-rule="evenodd" clip-rule="evenodd" d="M8.02486 2.01872C8.79688 1.26191 9.83639 0.840379 10.9175 0.845754C11.9986 0.851129 13.0338 1.28297 13.7983 2.04742C14.5627 2.81187 14.9946 3.84714 14.9999 4.92823C15.0053 6.00931 14.5838 7.04883 13.827 7.82084L13.8179 7.82991L11.7651 9.88273C11.3491 10.2989 10.8485 10.6206 10.2973 10.8263C9.74599 11.0319 9.15694 11.1166 8.57007 11.0745C7.9832 11.0325 7.41224 10.8647 6.89592 10.5825C6.3796 10.3004 5.93 9.91053 5.57762 9.43934C5.52169 9.36803 5.48058 9.28627 5.4567 9.19884C5.43283 9.11142 5.42667 9.02011 5.43858 8.93027C5.45049 8.84044 5.48024 8.75389 5.52608 8.67571C5.57191 8.59753 5.63291 8.52931 5.70549 8.47504C5.77807 8.42077 5.86076 8.38156 5.94871 8.3597C6.03666 8.33785 6.12809 8.33379 6.21763 8.34777C6.30717 8.36175 6.39301 8.39349 6.47011 8.44111C6.54721 8.48874 6.61401 8.55129 6.66659 8.6251C6.90225 8.93999 7.20284 9.20053 7.54801 9.38907C7.89317 9.57761 8.27483 9.68974 8.66713 9.71786C9.05942 9.74598 9.45317 9.68943 9.8217 9.55205C10.1902 9.41466 10.5249 9.19966 10.8031 8.9216L12.8523 6.87241C13.3414 6.35299 13.609 5.66345 13.5983 4.95004C13.5875 4.23663 13.2993 3.55546 12.7947 3.051C12.2901 2.54654 11.6089 2.25848 10.8955 2.2479C10.1821 2.23733 9.4926 2.50507 8.9733 2.99435L7.8 4.1613C7.67206 4.28852 7.49883 4.3597 7.31842 4.35919C7.138 4.35868 6.96518 4.28652 6.83796 4.15858C6.71075 4.03065 6.63957 3.85742 6.64008 3.677C6.64059 3.49659 6.71275 3.32376 6.84068 3.19655L8.02486 2.01872ZM4.6854 5.86866C5.51633 5.5588 6.42528 5.52649 7.27611 5.77659C8.12693 6.02669 8.87383 6.54573 9.4049 7.25595C9.50797 7.40064 9.55033 7.57991 9.52293 7.75543C9.49552 7.93095 9.40052 8.08877 9.25825 8.19515C9.11598 8.30153 8.93773 8.34801 8.76163 8.32466C8.58552 8.30131 8.42555 8.20997 8.31592 8.07019C8.08045 7.75505 7.77993 7.49427 7.43475 7.30555C7.08958 7.11684 6.70784 7.00461 6.31545 6.97648C5.92307 6.94836 5.52922 7.00499 5.16066 7.14255C4.7921 7.28011 4.45746 7.49536 4.17945 7.77369L2.13025 9.82289C1.62874 10.3398 1.35066 11.0332 1.35606 11.7534C1.36146 12.4736 1.6499 13.1628 2.15911 13.6721C2.66832 14.1814 3.35742 14.47 4.07761 14.4756C4.79781 14.4812 5.49129 14.2032 6.00831 13.7018L7.17436 12.5358C7.30256 12.4119 7.4743 12.3432 7.65261 12.3447C7.83092 12.3462 8.00151 12.4176 8.12766 12.5436C8.25381 12.6697 8.32541 12.8402 8.32704 13.0185C8.32867 13.1968 8.26021 13.3686 8.13639 13.4969L6.95765 14.6757C6.18422 15.4249 5.14726 15.84 4.07048 15.8315C2.9937 15.823 1.96343 15.3915 1.20195 14.6301C0.440464 13.8688 0.00881771 12.8386 0.000133601 11.7618C-0.00855051 10.685 0.406424 9.648 1.15553 8.87445L1.16459 8.86539L3.21742 6.81256C3.63329 6.39596 4.13439 6.07426 4.68631 5.86957" fill="#444444"/>
</svg>
