<svg width="15" height="19" viewBox="0 0 15 19" fill="none" xmlns="http://www.w3.org/2000/svg">
<path d="M7.5 2.001C5.9529 2.001 4.46917 2.61558 3.37521 3.70954C2.28125 4.8035 1.66667 6.28723 1.66667 7.83433C1.66667 10.2193 3.15167 12.5202 4.78167 14.3027C5.61512 15.2107 6.52453 16.0459 7.5 16.7993C7.64556 16.6877 7.81639 16.5515 8.0125 16.391C8.79567 15.7479 9.53276 15.0506 10.2183 14.3043C11.8483 12.5202 13.3333 10.2202 13.3333 7.83433C13.3333 6.28723 12.7188 4.8035 11.6248 3.70954C10.5308 2.61558 9.0471 2.001 7.5 2.001ZM7.5 18.846L7.0275 18.521L7.025 18.5193L7.02 18.5152L7.00333 18.5035L6.94083 18.4593L6.71583 18.2952C5.57572 17.4383 4.51656 16.4787 3.55167 15.4285C1.84833 13.5635 0 10.8643 0 7.83349C2.96403e-08 5.84437 0.790176 3.93672 2.1967 2.53019C3.60322 1.12367 5.51088 0.333496 7.5 0.333496C9.48912 0.333496 11.3968 1.12367 12.8033 2.53019C14.2098 3.93672 15 5.84437 15 7.83349C15 10.8643 13.1517 13.5643 11.4483 15.4268C10.4837 16.477 9.42483 17.4366 8.285 18.2935C8.19005 18.3644 8.0942 18.4341 7.9975 18.5027L7.98 18.5143L7.975 18.5185L7.97333 18.5193L7.5 18.846ZM7.5 6.16766C7.05797 6.16766 6.63405 6.34326 6.32149 6.65582C6.00893 6.96838 5.83333 7.3923 5.83333 7.83433C5.83333 8.27636 6.00893 8.70028 6.32149 9.01284C6.63405 9.3254 7.05797 9.50099 7.5 9.50099C7.94203 9.50099 8.36595 9.3254 8.67851 9.01284C8.99107 8.70028 9.16667 8.27636 9.16667 7.83433C9.16667 7.3923 8.99107 6.96838 8.67851 6.65582C8.36595 6.34326 7.94203 6.16766 7.5 6.16766ZM4.16667 7.83433C4.16667 6.95027 4.51786 6.10243 5.14298 5.47731C5.7681 4.85218 6.61594 4.501 7.5 4.501C8.38406 4.501 9.2319 4.85218 9.85702 5.47731C10.4821 6.10243 10.8333 6.95027 10.8333 7.83433C10.8333 8.71838 10.4821 9.56623 9.85702 10.1914C9.2319 10.8165 8.38406 11.1677 7.5 11.1677C6.61594 11.1677 5.7681 10.8165 5.14298 10.1914C4.51786 9.56623 4.16667 8.71838 4.16667 7.83433Z" fill="#444444"/>
</svg>
