<svg width="18" height="18" viewBox="0 0 18 18" fill="none" xmlns="http://www.w3.org/2000/svg">
<path d="M14.0602 11.26L16.7297 13.9296C16.8154 14.0148 16.8834 14.1162 16.9297 14.2277C16.9761 14.3393 17 14.459 17 14.5798C17 14.7007 16.9761 14.8203 16.9297 14.9319C16.8834 15.0435 16.8154 15.1448 16.7297 15.2301C15.791 16.169 14.5451 16.7378 13.2207 16.8318C11.8963 16.9259 10.5825 16.539 9.52045 15.7422L7.93261 14.5506C6.17486 13.2323 4.61341 11.6708 3.2951 9.9131L2.10347 8.32526C1.30667 7.26323 0.919788 5.94938 1.01387 4.62501C1.10795 3.30065 1.67668 2.05469 2.61561 1.11596C2.70086 1.0303 2.80218 0.962335 2.91378 0.915957C3.02537 0.869578 3.14502 0.845703 3.26587 0.845703C3.38671 0.845703 3.50637 0.869578 3.61796 0.915957C3.72955 0.962335 3.83088 1.0303 3.91613 1.11596L6.58571 3.78555C6.77471 3.9746 6.88089 4.23098 6.88089 4.49831C6.88089 4.76564 6.77471 5.02202 6.58571 5.21107L5.55639 6.2404C5.47605 6.31993 5.423 6.4229 5.40489 6.5345C5.38677 6.64609 5.40452 6.76055 5.45557 6.86142C6.65167 9.25403 8.59168 11.194 10.9843 12.3901C11.0852 12.4412 11.1996 12.4589 11.3112 12.4408C11.4228 12.4227 11.5258 12.3697 11.6053 12.2893L12.6336 11.261C12.7273 11.1673 12.8384 11.0929 12.9608 11.0422C13.0832 10.9914 13.2144 10.9653 13.3469 10.9653C13.4794 10.9653 13.6106 10.9914 13.733 11.0422C13.8553 11.0929 13.9665 11.1673 14.0602 11.261V11.26Z" stroke="#666666" stroke-width="1.25"/>
</svg>
