<svg width="15" height="17" viewBox="0 0 15 17" fill="none" xmlns="http://www.w3.org/2000/svg">
<path d="M7.87929 0.157386C7.82952 0.107497 7.77041 0.0679154 7.70532 0.0409085C7.64024 0.0139016 7.57046 0 7.5 0C7.42953 0 7.35976 0.0139016 7.29468 0.0409085C7.22959 0.0679154 7.17048 0.107497 7.12071 0.157386L2.29929 4.97881C2.24948 5.02862 2.20997 5.08775 2.18301 5.15283C2.15605 5.21791 2.14218 5.28766 2.14218 5.3581C2.14218 5.42854 2.15605 5.49829 2.18301 5.56337C2.20997 5.62845 2.24948 5.68758 2.29929 5.73739C2.34909 5.78719 2.40823 5.8267 2.4733 5.85366C2.53838 5.88062 2.60813 5.89449 2.67857 5.89449C2.74901 5.89449 2.81876 5.88062 2.88384 5.85366C2.94892 5.8267 3.00805 5.78719 3.05786 5.73739L6.96429 1.82989V11.251C6.96429 11.393 7.02073 11.5293 7.12119 11.6298C7.22166 11.7302 7.35792 11.7867 7.5 11.7867C7.64208 11.7867 7.77834 11.7302 7.87881 11.6298C7.97927 11.5293 8.03571 11.393 8.03571 11.251V1.82989L11.9421 5.73739C12.0427 5.83798 12.1792 5.89449 12.3214 5.89449C12.4637 5.89449 12.6001 5.83798 12.7007 5.73739C12.8013 5.63679 12.8578 5.50036 12.8578 5.3581C12.8578 5.21584 12.8013 5.07941 12.7007 4.97881L7.87929 0.157386ZM1.07143 8.03667C1.07143 7.89459 1.01499 7.75833 0.914521 7.65786C0.814055 7.5574 0.677795 7.50096 0.535714 7.50096C0.393634 7.50096 0.257373 7.5574 0.156907 7.65786C0.0564413 7.75833 0 7.89459 0 8.03667V12.8581C0 13.7106 0.338647 14.5281 0.941443 15.1309C1.54424 15.7337 2.3618 16.0724 3.21429 16.0724H11.7857C12.6382 16.0724 13.4558 15.7337 14.0586 15.1309C14.6614 14.5281 15 13.7106 15 12.8581V8.03667C15 7.89459 14.9436 7.75833 14.8431 7.65786C14.7426 7.5574 14.6064 7.50096 14.4643 7.50096C14.3222 7.50096 14.1859 7.5574 14.0855 7.65786C13.985 7.75833 13.9286 7.89459 13.9286 8.03667V12.8581C13.9286 13.4264 13.7028 13.9715 13.3009 14.3733C12.8991 14.7752 12.354 15.001 11.7857 15.001H3.21429C2.64596 15.001 2.10092 14.7752 1.69906 14.3733C1.29719 13.9715 1.07143 13.4264 1.07143 12.8581V8.03667Z" fill="#666666"/>
</svg>
