<svg width="19" height="20" viewBox="0 0 19 20" fill="none" xmlns="http://www.w3.org/2000/svg">
<path d="M10.1143 0.188863C10.0546 0.128996 9.98367 0.0814985 9.90557 0.0490902C9.82746 0.016682 9.74374 0 9.65918 0C9.57462 0 9.49089 0.016682 9.41279 0.0490902C9.33469 0.0814985 9.26375 0.128996 9.20404 0.188863L3.41832 5.97458C3.35855 6.03435 3.31114 6.1053 3.27879 6.1834C3.24644 6.26149 3.2298 6.34519 3.2298 6.42972C3.2298 6.51425 3.24644 6.59795 3.27879 6.67604C3.31114 6.75414 3.35855 6.82509 3.41832 6.88486C3.47809 6.94463 3.54905 6.99205 3.62714 7.02439C3.70524 7.05674 3.78894 7.07339 3.87347 7.07339C3.95799 7.07339 4.04169 7.05674 4.11979 7.02439C4.19788 6.99205 4.26884 6.94463 4.32861 6.88486L9.01632 2.19586V13.5011C9.01632 13.6716 9.08405 13.8352 9.20461 13.9557C9.32517 14.0763 9.48868 14.144 9.65918 14.144C9.82968 14.144 9.99319 14.0763 10.1137 13.9557C10.2343 13.8352 10.302 13.6716 10.302 13.5011V2.19586L14.9898 6.88486C15.1105 7.00557 15.2742 7.07339 15.4449 7.07339C15.6156 7.07339 15.7793 7.00557 15.9 6.88486C16.0207 6.76415 16.0886 6.60043 16.0886 6.42972C16.0886 6.25901 16.0207 6.09529 15.9 5.97458L10.1143 0.188863ZM1.94489 9.64401C1.94489 9.47351 1.87716 9.31 1.75661 9.18944C1.63605 9.06888 1.47253 9.00115 1.30204 9.00115C1.13154 9.00115 0.968027 9.06888 0.847468 9.18944C0.726909 9.31 0.65918 9.47351 0.65918 9.64401V15.4297C0.65918 16.4527 1.06556 17.4338 1.78891 18.1571C2.51227 18.8805 3.49334 19.2869 4.51632 19.2869H14.802C15.825 19.2869 16.8061 18.8805 17.5294 18.1571C18.2528 17.4338 18.6592 16.4527 18.6592 15.4297V9.64401C18.6592 9.47351 18.5915 9.31 18.4709 9.18944C18.3503 9.06888 18.1868 9.00115 18.0163 9.00115C17.8458 9.00115 17.6823 9.06888 17.5618 9.18944C17.4412 9.31 17.3735 9.47351 17.3735 9.64401V15.4297C17.3735 16.1117 17.1025 16.7658 16.6203 17.248C16.1381 17.7302 15.484 18.0011 14.802 18.0011H4.51632C3.83434 18.0011 3.18028 17.7302 2.69805 17.248C2.21581 16.7658 1.94489 16.1117 1.94489 15.4297V9.64401Z" fill="#666666"/>
</svg>
