<svg width="17" height="18" viewBox="0 0 17 18" fill="none" xmlns="http://www.w3.org/2000/svg">
<path d="M8.33333 15.6665C10.1014 15.6665 11.7971 14.9641 13.0474 13.7139C14.2976 12.4636 15 10.7679 15 8.99984C15 7.23173 14.2976 5.53603 13.0474 4.28579C11.7971 3.03555 10.1014 2.33317 8.33333 2.33317C6.56522 2.33317 4.86953 3.03555 3.61929 4.28579C2.36905 5.53603 1.66667 7.23173 1.66667 8.99984C1.66667 10.7679 2.36905 12.4636 3.61929 13.7139C4.86953 14.9641 6.56522 15.6665 8.33333 15.6665ZM8.33333 0.666504C9.42768 0.666504 10.5113 0.882052 11.5224 1.30084C12.5334 1.71963 13.4521 2.33346 14.2259 3.10728C14.9997 3.8811 15.6135 4.79976 16.0323 5.81081C16.4511 6.82185 16.6667 7.90549 16.6667 8.99984C16.6667 11.21 15.7887 13.3296 14.2259 14.8924C12.6631 16.4552 10.5435 17.3332 8.33333 17.3332C3.725 17.3332 0 13.5832 0 8.99984C0 6.7897 0.877974 4.67008 2.44078 3.10728C4.00358 1.54448 6.1232 0.666504 8.33333 0.666504ZM8.75 4.83317V9.20817L12.5 11.4332L11.875 12.4582L7.5 9.83317V4.83317H8.75Z" fill="#444444"/>
</svg>
