<svg width="24" height="28" viewBox="0 0 24 28" fill="none" xmlns="http://www.w3.org/2000/svg">
<path d="M12.0022 1.63929C10.9153 1.63929 9.87291 2.07107 9.10434 2.83964C8.33577 3.60821 7.90399 4.65061 7.90399 5.73753C7.90399 6.82445 8.33577 7.86685 9.10434 8.63542C9.87291 9.40399 10.9153 9.83577 12.0022 9.83577C13.0891 9.83577 14.1316 9.40399 14.9001 8.63542C15.6687 7.86685 16.1005 6.82445 16.1005 5.73753C16.1005 4.65061 15.6687 3.60821 14.9001 2.83964C14.1316 2.07107 13.0891 1.63929 12.0022 1.63929ZM6.2647 5.73753C6.2647 4.98407 6.4131 4.23798 6.70144 3.54187C6.98978 2.84576 7.4124 2.21326 7.94518 1.68048C8.47796 1.1477 9.11046 0.725081 9.80657 0.436743C10.5027 0.148405 11.2488 0 12.0022 0C12.7557 0 13.5018 0.148405 14.1979 0.436743C14.894 0.725081 15.5265 1.1477 16.0593 1.68048C16.5921 2.21326 17.0147 2.84576 17.303 3.54187C17.5914 4.23798 17.7398 4.98407 17.7398 5.73753C17.7398 7.25922 17.1353 8.71858 16.0593 9.79458C14.9833 10.8706 13.5239 11.4751 12.0022 11.4751C10.4805 11.4751 9.02118 10.8706 7.94518 9.79458C6.86919 8.71858 6.2647 7.25922 6.2647 5.73753ZM7.69088 14.8291C7.30838 14.9274 6.92971 15.0378 6.55485 15.1602L4.98277 15.6766C4.3406 15.8857 3.76064 16.2514 3.29527 16.7408C2.8299 17.2303 2.49378 17.8279 2.31728 18.4798L1.6632 23.2009C1.51566 24.2616 2.07794 25.1353 2.96808 25.3484C4.7172 25.7664 7.64171 26.2287 12.0006 26.2287C16.3611 26.2287 19.2873 25.7664 21.0364 25.3484C21.9265 25.1353 22.4872 24.2616 22.3413 23.2009L21.6855 18.4798C21.509 17.8279 21.1729 17.2303 20.7076 16.7408C20.2422 16.2514 19.6622 15.8857 19.0201 15.6766L17.448 15.1602C17.0731 15.0367 16.695 14.9263 16.3136 14.8291C16.0175 15.0614 15.704 15.2708 15.3759 15.4553C14.3488 16.0453 13.1868 16.3604 12.0022 16.37C10.5924 16.37 9.42854 15.9061 8.62856 15.4553C8.29992 15.2708 7.98753 15.0615 7.69088 14.8291ZM8.15644 13.034L8.47447 13.3471L8.48266 13.3553L8.52201 13.3914C8.56026 13.4264 8.62091 13.4766 8.70397 13.5422C8.8679 13.6734 9.11543 13.8504 9.43182 14.0274C10.0662 14.3848 10.9514 14.7307 12.0006 14.7307C13.0497 14.7307 13.935 14.3865 14.5694 14.0274C14.8919 13.8452 15.1961 13.6322 15.4775 13.3914L15.5185 13.3537L15.5251 13.3488L15.8431 13.034L16.2824 13.1357C16.8463 13.2646 17.4048 13.4204 17.9578 13.6029L19.5315 14.1192C20.4437 14.4154 21.2662 14.9375 21.9225 15.6368C22.5788 16.3361 23.0477 17.19 23.2855 18.1191L23.297 18.1634L23.9625 22.9764C24.2035 24.714 23.274 26.5008 21.4151 26.9434C19.5299 27.3926 16.4759 27.868 12.0006 27.868C7.52532 27.868 4.47131 27.3926 2.58612 26.9434C0.72716 26.5008 -0.20232 24.714 0.0370175 22.9764L0.70421 18.1634L0.715685 18.1191C0.953483 17.19 1.42234 16.3361 2.07867 15.6368C2.735 14.9375 3.55748 14.4154 4.46967 14.1192L6.04339 13.6029C6.59638 13.4215 7.15484 13.2657 7.71875 13.1357L8.15644 13.034Z" fill="black"/>
</svg>
