<svg width="23" height="20" viewBox="0 0 23 20" fill="none" xmlns="http://www.w3.org/2000/svg">
<path d="M23 10C23 10.4188 22.8546 10.8204 22.5958 11.1165C22.337 11.4126 21.986 11.5789 21.62 11.5789H1.38C1.014 11.5789 0.662993 11.4126 0.404193 11.1165C0.145392 10.8204 0 10.4188 0 10C0 9.58124 0.145392 9.17963 0.404193 8.88352C0.662993 8.58741 1.014 8.42105 1.38 8.42105H21.62C21.986 8.42105 22.337 8.58741 22.5958 8.88352C22.8546 9.17963 23 9.58124 23 10ZM1.38 3.15789H21.62C21.986 3.15789 22.337 2.99154 22.5958 2.69543C22.8546 2.39932 23 1.99771 23 1.57895C23 1.16018 22.8546 0.758573 22.5958 0.462463C22.337 0.166353 21.986 0 21.62 0H1.38C1.014 0 0.662993 0.166353 0.404193 0.462463C0.145392 0.758573 0 1.16018 0 1.57895C0 1.99771 0.145392 2.39932 0.404193 2.69543C0.662993 2.99154 1.014 3.15789 1.38 3.15789ZM21.62 16.8421H1.38C1.014 16.8421 0.662993 17.0085 0.404193 17.3046C0.145392 17.6007 0 18.0023 0 18.4211C0 18.8398 0.145392 19.2414 0.404193 19.5375C0.662993 19.8336 1.014 20 1.38 20H21.62C21.986 20 22.337 19.8336 22.5958 19.5375C22.8546 19.2414 23 18.8398 23 18.4211C23 18.0023 22.8546 17.6007 22.5958 17.3046C22.337 17.0085 21.986 16.8421 21.62 16.8421Z" fill="white"/>
</svg>
