<svg width="31" height="31" viewBox="0 0 31 31" fill="none" xmlns="http://www.w3.org/2000/svg">
<path d="M14.4643 3.71436V10.6786H3.21429V7.73221C3.21429 6.66661 3.6376 5.64465 4.3911 4.89116C5.14459 4.13766 6.16655 3.71436 7.23215 3.71436H14.4643ZM16.0714 3.71436V18.1786H26.7857V7.73221C26.7857 6.66661 26.3624 5.64465 25.6089 4.89116C24.8554 4.13766 23.8335 3.71436 22.7679 3.71436H16.0714ZM26.7857 19.7858H16.0714V27.2858H22.7679C23.8335 27.2858 24.8554 26.8625 25.6089 26.109C26.3624 25.3555 26.7857 24.3335 26.7857 23.2679V19.7858ZM14.4643 27.2858V12.2858H3.21429V23.2679C3.21429 24.3335 3.6376 25.3555 4.3911 26.109C5.14459 26.8625 6.16655 27.2858 7.23215 27.2858H14.4643Z" fill="#FF5593"/>
</svg>
