<svg width="31" height="31" viewBox="0 0 31 31" fill="none" xmlns="http://www.w3.org/2000/svg">
<path d="M15.0379 3.92749V10.8918H3.7879V7.94535C3.7879 6.87975 4.21121 5.85779 4.96471 5.10429C5.7182 4.3508 6.74016 3.92749 7.80576 3.92749H15.0379ZM16.645 3.92749V18.3918H27.3593V7.94535C27.3593 6.87975 26.936 5.85779 26.1825 5.10429C25.429 4.3508 24.4071 3.92749 23.3415 3.92749H16.645ZM27.3593 19.9989H16.645V27.4989H23.3415C24.4071 27.4989 25.429 27.0756 26.1825 26.3221C26.936 25.5686 27.3593 24.5467 27.3593 23.4811V19.9989ZM15.0379 27.4989V12.4989H3.7879V23.4811C3.7879 24.5467 4.21121 25.5686 4.96471 26.3221C5.7182 27.0756 6.74016 27.4989 7.80576 27.4989H15.0379Z" fill="#FF5593"/>
</svg>
