<svg width="30" height="30" viewBox="0 0 30 30" fill="none" xmlns="http://www.w3.org/2000/svg">
<path d="M25 5.21313H5C3.625 5.21313 2.5125 6.33813 2.5125 7.71313L2.5 22.7131C2.5 24.0881 3.625 25.2131 5 25.2131H25C26.375 25.2131 27.5 24.0881 27.5 22.7131V7.71313C27.5 6.33813 26.375 5.21313 25 5.21313ZM24.5 10.5256L15.6625 16.0506C15.2625 16.3006 14.7375 16.3006 14.3375 16.0506L5.5 10.5256C5.37466 10.4553 5.2649 10.3602 5.17736 10.2462C5.08982 10.1322 5.02633 10.0016 4.99072 9.86235C4.95511 9.72309 4.94813 9.57805 4.9702 9.43602C4.99226 9.29398 5.04292 9.1579 5.1191 9.03601C5.19528 8.91412 5.29541 8.80895 5.41341 8.72688C5.53141 8.6448 5.66484 8.58752 5.80562 8.55851C5.9464 8.52949 6.0916 8.52934 6.23244 8.55807C6.37328 8.5868 6.50683 8.6438 6.625 8.72563L15 13.9631L23.375 8.72563C23.4932 8.6438 23.6267 8.5868 23.7676 8.55807C23.9084 8.52934 24.0536 8.52949 24.1944 8.55851C24.3352 8.58752 24.4686 8.6448 24.5866 8.72688C24.7046 8.80895 24.8047 8.91412 24.8809 9.03601C24.9571 9.1579 25.0077 9.29398 25.0298 9.43602C25.0519 9.57805 25.0449 9.72309 25.0093 9.86235C24.9737 10.0016 24.9102 10.1322 24.8226 10.2462C24.7351 10.3602 24.6253 10.4553 24.5 10.5256Z" fill="#FF5593"/>
</svg>
