<svg width="26" height="31" viewBox="0 0 26 31" fill="none" xmlns="http://www.w3.org/2000/svg">
<path d="M3.58194 27.0574H22.418C24.6925 27.0574 25.8352 25.7519 25.8352 23.1655V7.83386C25.8352 5.24743 24.6925 3.94189 22.418 3.94189H3.58194C1.31854 3.94243 0.164795 5.23564 0.164795 7.83386V23.166C0.164795 25.7648 1.31854 27.0574 3.58194 27.0574ZM8.32601 15.808C6.84633 15.808 5.63826 14.4146 5.63826 12.7067C5.63826 11.0117 6.84633 9.60547 8.32647 9.60547C9.79547 9.60547 11.0031 11.0117 11.0031 12.7073C11.0031 14.4146 9.79547 15.808 8.32601 15.808ZM3.60376 25.0362C2.55912 25.0362 1.91701 24.3076 1.91701 23.0771V22.311L5.25754 18.9467C5.73622 18.4571 6.25854 18.2058 6.74837 18.2058C7.27069 18.2058 7.82551 18.4571 8.30465 18.9719L10.3939 21.1308L15.5847 15.8074C16.1283 15.2551 16.7268 15.0039 17.3364 15.0039C17.9349 15.0039 18.5552 15.2674 19.0775 15.8203L24.0825 21.1689V23.1028C24.0825 24.3081 23.4302 25.0362 22.3962 25.0362H3.60376Z" fill="#FF5593"/>
</svg>
