<svg width="31" height="31" viewBox="0 0 31 31" fill="none" xmlns="http://www.w3.org/2000/svg">
<path d="M23.0736 28.2131C23.7366 28.2131 24.3725 27.9497 24.8414 27.4809C25.3102 27.0121 25.5736 26.3762 25.5736 25.7131V10.7131L18.0736 3.21313H8.07361C7.41057 3.21313 6.77468 3.47653 6.30584 3.94537C5.837 4.41421 5.57361 5.05009 5.57361 5.71313V25.7131C5.57361 26.3762 5.837 27.0121 6.30584 27.4809C6.77468 27.9497 7.41057 28.2131 8.07361 28.2131H23.0736ZM16.8236 5.71313L23.0736 11.9631H16.8236V5.71313ZM9.32361 10.7131H13.0736V13.2131H9.32361V10.7131ZM9.32361 15.7131H21.8236V18.2131H9.32361V15.7131ZM9.32361 20.7131H21.8236V23.2131H9.32361V20.7131Z" fill="#FF5593"/>
</svg>
