<svg width="26" height="31" viewBox="0 0 26 31" fill="none" xmlns="http://www.w3.org/2000/svg">
<g clip-path="url(#clip0_1121_507)">
<path d="M4.15558 27.2706H22.9916C25.2662 27.2706 26.4088 25.965 26.4088 23.3786V8.04699C26.4088 5.46056 25.2662 4.15503 22.9916 4.15503H4.15558C1.89218 4.15557 0.738434 5.44878 0.738434 8.04699V23.3791C0.738434 25.9779 1.89218 27.2706 4.15558 27.2706ZM8.89965 16.0211C7.41997 16.0211 6.2119 14.6277 6.2119 12.9199C6.2119 11.2249 7.41997 9.8186 8.90011 9.8186C10.3691 9.8186 11.5767 11.2249 11.5767 12.9204C11.5767 14.6277 10.3691 16.0211 8.89965 16.0211ZM4.1774 25.2493C3.13276 25.2493 2.49065 24.5207 2.49065 23.2902V22.5241L5.83118 19.1598C6.30986 18.6702 6.83218 18.419 7.32201 18.419C7.84433 18.419 8.39915 18.6702 8.87829 19.185L10.9676 21.344L16.1583 16.0206C16.702 15.4682 17.3004 15.217 17.91 15.217C18.5085 15.217 19.1288 15.4806 19.6511 16.0334L24.6561 21.382V23.3159C24.6561 24.5213 24.0038 25.2493 22.9698 25.2493H4.1774Z" fill="#FF5593"/>
</g>
<defs>
<clipPath id="clip0_1121_507">
<rect width="26" height="30" fill="white" transform="translate(0.573608 0.713135)"/>
</clipPath>
</defs>
</svg>
