<svg width="31" height="31" viewBox="0 0 31 31" fill="none" xmlns="http://www.w3.org/2000/svg">
<path d="M22.5 28C23.163 28 23.7989 27.7366 24.2678 27.2678C24.7366 26.7989 25 26.163 25 25.5V10.5L17.5 3H7.5C6.83696 3 6.20107 3.26339 5.73223 3.73223C5.26339 4.20107 5 4.83696 5 5.5V25.5C5 26.163 5.26339 26.7989 5.73223 27.2678C6.20107 27.7366 6.83696 28 7.5 28H22.5ZM16.25 5.5L22.5 11.75H16.25V5.5ZM8.75 10.5H12.5V13H8.75V10.5ZM8.75 15.5H21.25V18H8.75V15.5ZM8.75 20.5H21.25V23H8.75V20.5Z" fill="#FF5593"/>
</svg>
