<svg width="22" height="13" viewBox="0 0 22 13" fill="none" xmlns="http://www.w3.org/2000/svg">
<path fill-rule="evenodd" clip-rule="evenodd" d="M0.6875 12.25C0.6875 12.0594 0.789565 11.8766 0.97124 11.7418C1.15292 11.607 1.39932 11.5312 1.65625 11.5312H21.0312C21.2882 11.5312 21.5346 11.607 21.7163 11.7418C21.8979 11.8766 22 12.0594 22 12.25C22 12.4406 21.8979 12.6234 21.7163 12.7582C21.5346 12.893 21.2882 12.9688 21.0312 12.9688H1.65625C1.39932 12.9688 1.15292 12.893 0.97124 12.7582C0.789565 12.6234 0.6875 12.4406 0.6875 12.25ZM0.6875 6.5C0.6875 6.30938 0.789565 6.12656 0.97124 5.99177C1.15292 5.85698 1.39932 5.78125 1.65625 5.78125H21.0312C21.2882 5.78125 21.5346 5.85698 21.7163 5.99177C21.8979 6.12656 22 6.30938 22 6.5C22 6.69062 21.8979 6.87344 21.7163 7.00823C21.5346 7.14303 21.2882 7.21875 21.0312 7.21875H1.65625C1.39932 7.21875 1.15292 7.14303 0.97124 7.00823C0.789565 6.87344 0.6875 6.69062 0.6875 6.5ZM0.6875 0.75C0.6875 0.559376 0.789565 0.376559 0.97124 0.241767C1.15292 0.106975 1.39932 0.03125 1.65625 0.03125H21.0312C21.2882 0.03125 21.5346 0.106975 21.7163 0.241767C21.8979 0.376559 22 0.559376 22 0.75C22 0.940624 21.8979 1.12344 21.7163 1.25823C21.5346 1.39302 21.2882 1.46875 21.0312 1.46875H1.65625C1.39932 1.46875 1.15292 1.39302 0.97124 1.25823C0.789565 1.12344 0.6875 0.940624 0.6875 0.75Z" fill="black"/>
</svg>
