<svg width="30" height="30" viewBox="0 0 30 30" fill="none" xmlns="http://www.w3.org/2000/svg">
<path d="M15 3.9668C14.508 3.9668 14.0209 4.0637 13.5664 4.25196C13.1119 4.44023 12.6989 4.71618 12.351 5.06405C12.0031 5.41192 11.7272 5.8249 11.5389 6.27942C11.3506 6.73393 11.2537 7.22108 11.2537 7.71305C11.2537 8.20501 11.3506 8.69216 11.5389 9.14667C11.7272 9.60119 12.0031 10.0142 12.351 10.362C12.6989 10.7099 13.1119 10.9859 13.5664 11.1741C14.0209 11.3624 14.508 11.4593 15 11.4593C15.9936 11.4593 16.9464 11.0646 17.649 10.362C18.3516 9.65949 18.7463 8.70661 18.7463 7.71305C18.7463 6.71948 18.3516 5.76661 17.649 5.06405C16.9464 4.36149 15.9936 3.9668 15 3.9668ZM23.4375 5.83805C22.6916 5.83805 21.9762 6.13436 21.4488 6.66181C20.9213 7.18926 20.625 7.90463 20.625 8.65055C20.625 9.39647 20.9213 10.1118 21.4488 10.6393C21.9762 11.1667 22.6916 11.463 23.4375 11.463C24.1834 11.463 24.8988 11.1667 25.4262 10.6393C25.9537 10.1118 26.25 9.39647 26.25 8.65055C26.25 7.90463 25.9537 7.18926 25.4262 6.66181C24.8988 6.13436 24.1834 5.83805 23.4375 5.83805ZM6.5625 5.83805C5.81658 5.83805 5.10121 6.13436 4.57376 6.66181C4.04632 7.18926 3.75 7.90463 3.75 8.65055C3.75 9.39647 4.04632 10.1118 4.57376 10.6393C5.10121 11.1667 5.81658 11.463 6.5625 11.463C7.30842 11.463 8.02379 11.1667 8.55124 10.6393C9.07868 10.1118 9.375 9.39647 9.375 8.65055C9.375 7.90463 9.07868 7.18926 8.55124 6.66181C8.02379 6.13436 7.30842 5.83805 6.5625 5.83805ZM9.375 15.1999C9.37847 14.7049 9.57754 14.2314 9.92879 13.8826C10.28 13.5338 10.755 13.338 11.25 13.338H18.75C19.2473 13.338 19.7242 13.5356 20.0758 13.8872C20.4275 14.2389 20.625 14.7158 20.625 15.213V20.838C20.6255 21.4282 20.5331 22.0147 20.3513 22.5762C19.9361 23.8487 19.0808 24.9316 17.9391 25.6304C16.7974 26.3291 15.4439 26.5979 14.1218 26.3886C12.7997 26.1792 11.5955 25.5054 10.7255 24.4881C9.85553 23.4708 9.37669 22.1766 9.375 20.838V15.1999ZM7.5 15.213C7.5 14.5287 7.68188 13.8893 8.0025 13.338H3.75C3.25272 13.338 2.77581 13.5356 2.42417 13.8872C2.07254 14.2389 1.875 14.7158 1.875 15.213V19.9005C1.87474 20.668 2.06292 21.4238 2.42301 22.1015C2.7831 22.7792 3.30408 23.3582 3.9402 23.7875C4.57633 24.2168 5.30813 24.4834 6.07136 24.5638C6.83458 24.6442 7.60587 24.536 8.3175 24.2487C7.77899 23.1918 7.49882 22.0223 7.5 20.8362V15.213ZM22.5 15.213V20.838C22.5 22.0662 22.2056 23.2249 21.6825 24.2487C22.3941 24.536 23.1654 24.6442 23.9286 24.5638C24.6919 24.4834 25.4237 24.2168 26.0598 23.7875C26.6959 23.3582 27.2169 22.7792 27.577 22.1015C27.9371 21.4238 28.1253 20.668 28.125 19.9005V15.213C28.125 14.7158 27.9275 14.2389 27.5758 13.8872C27.2242 13.5356 26.7473 13.338 26.25 13.338H21.9975C22.3163 13.8893 22.5 14.5287 22.5 15.213Z" fill="#FF5593"/>
</svg>
