<svg width="30" height="30" viewBox="0 0 30 30" fill="none" xmlns="http://www.w3.org/2000/svg">
<path d="M23.9062 19.6875H20.1562C19.8974 19.6875 19.6875 19.8974 19.6875 20.1562V23.9062C19.6875 24.1651 19.8974 24.375 20.1562 24.375H23.9062C24.1651 24.375 24.375 24.1651 24.375 23.9062V20.1562C24.375 19.8974 24.1651 19.6875 23.9062 19.6875Z" fill="black"/>
<path d="M19.2188 15.9375H16.4062C16.1474 15.9375 15.9375 16.1474 15.9375 16.4062V19.2188C15.9375 19.4776 16.1474 19.6875 16.4062 19.6875H19.2188C19.4776 19.6875 19.6875 19.4776 19.6875 19.2188V16.4062C19.6875 16.1474 19.4776 15.9375 19.2188 15.9375Z" fill="black"/>
<path d="M27.6562 24.375H24.8438C24.5849 24.375 24.375 24.5849 24.375 24.8438V27.6562C24.375 27.9151 24.5849 28.125 24.8438 28.125H27.6562C27.9151 28.125 28.125 27.9151 28.125 27.6562V24.8438C28.125 24.5849 27.9151 24.375 27.6562 24.375Z" fill="black"/>
<path d="M27.6562 15.9375H25.7812C25.5224 15.9375 25.3125 16.1474 25.3125 16.4062V18.2812C25.3125 18.5401 25.5224 18.75 25.7812 18.75H27.6562C27.9151 18.75 28.125 18.5401 28.125 18.2812V16.4062C28.125 16.1474 27.9151 15.9375 27.6562 15.9375Z" fill="black"/>
<path d="M18.2812 25.3125H16.4062C16.1474 25.3125 15.9375 25.5224 15.9375 25.7812V27.6562C15.9375 27.9151 16.1474 28.125 16.4062 28.125H18.2812C18.5401 28.125 18.75 27.9151 18.75 27.6562V25.7812C18.75 25.5224 18.5401 25.3125 18.2812 25.3125Z" fill="black"/>
<path d="M23.9062 5.625H20.1562C19.8974 5.625 19.6875 5.83487 19.6875 6.09375V9.84375C19.6875 10.1026 19.8974 10.3125 20.1562 10.3125H23.9062C24.1651 10.3125 24.375 10.1026 24.375 9.84375V6.09375C24.375 5.83487 24.1651 5.625 23.9062 5.625Z" fill="black"/>
<path d="M26.25 2.8125H17.8125C17.2947 2.8125 16.875 3.23223 16.875 3.75V12.1875C16.875 12.7053 17.2947 13.125 17.8125 13.125H26.25C26.7678 13.125 27.1875 12.7053 27.1875 12.1875V3.75C27.1875 3.23223 26.7678 2.8125 26.25 2.8125Z" stroke="black" stroke-width="1.875" stroke-linecap="round" stroke-linejoin="round"/>
<path d="M9.84375 5.625H6.09375C5.83487 5.625 5.625 5.83487 5.625 6.09375V9.84375C5.625 10.1026 5.83487 10.3125 6.09375 10.3125H9.84375C10.1026 10.3125 10.3125 10.1026 10.3125 9.84375V6.09375C10.3125 5.83487 10.1026 5.625 9.84375 5.625Z" fill="black"/>
<path d="M12.1875 2.8125H3.75C3.23223 2.8125 2.8125 3.23223 2.8125 3.75V12.1875C2.8125 12.7053 3.23223 13.125 3.75 13.125H12.1875C12.7053 13.125 13.125 12.7053 13.125 12.1875V3.75C13.125 3.23223 12.7053 2.8125 12.1875 2.8125Z" stroke="black" stroke-width="1.875" stroke-linecap="round" stroke-linejoin="round"/>
<path d="M9.84375 19.6875H6.09375C5.83487 19.6875 5.625 19.8974 5.625 20.1562V23.9062C5.625 24.1651 5.83487 24.375 6.09375 24.375H9.84375C10.1026 24.375 10.3125 24.1651 10.3125 23.9062V20.1562C10.3125 19.8974 10.1026 19.6875 9.84375 19.6875Z" fill="black"/>
<path d="M12.1875 16.875H3.75C3.23223 16.875 2.8125 17.2947 2.8125 17.8125V26.25C2.8125 26.7678 3.23223 27.1875 3.75 27.1875H12.1875C12.7053 27.1875 13.125 26.7678 13.125 26.25V17.8125C13.125 17.2947 12.7053 16.875 12.1875 16.875Z" stroke="black" stroke-width="1.875" stroke-linecap="round" stroke-linejoin="round"/>
</svg>
