<svg width="24" height="24" viewBox="0 0 24 24" fill="none" xmlns="http://www.w3.org/2000/svg">
<path fill-rule="evenodd" clip-rule="evenodd" d="M20.2646 0.168079C20.7613 -0.0129327 21.2994 -0.0483843 21.8156 0.0658905C22.3318 0.180165 22.8047 0.439418 23.1786 0.813178C23.5526 1.18694 23.8121 1.65967 23.9266 2.17583C24.0411 2.69198 24.0059 3.2301 23.8251 3.72694L17.6983 22.0904C17.5492 22.5416 17.2869 22.9471 16.9363 23.2679C16.5857 23.5888 16.1587 23.8143 15.696 23.9229C15.2344 24.0352 14.7516 24.0256 14.2949 23.8952C13.8381 23.7648 13.423 23.518 13.0903 23.1789L9.80229 19.9064L6.34972 21.6927C6.21737 21.7613 6.06941 21.7942 5.92045 21.7882C5.77149 21.7821 5.62668 21.7374 5.50032 21.6583C5.37395 21.5791 5.27041 21.4684 5.1999 21.3371C5.1294 21.2057 5.09438 21.0583 5.09829 20.9092L5.24058 15.4509L17.3177 6.67894C17.4316 6.5962 17.5281 6.49184 17.6017 6.37182C17.6753 6.25179 17.7245 6.11844 17.7466 5.97939C17.7686 5.84035 17.7631 5.69832 17.7302 5.56141C17.6974 5.42451 17.6379 5.29542 17.5551 5.18151C17.4724 5.06759 17.3681 4.97109 17.248 4.89751C17.128 4.82393 16.9947 4.77471 16.8556 4.75267C16.7166 4.73062 16.5745 4.73617 16.4376 4.76902C16.3007 4.80186 16.1716 4.86135 16.0577 4.94408L3.77658 13.8652L0.810862 10.8995C0.491239 10.5798 0.255595 10.186 0.124896 9.75326C-0.00580314 9.32049 -0.0275057 8.86212 0.0617194 8.41894C0.151432 7.93441 0.368445 7.48249 0.69049 7.10953C1.01254 6.73657 1.42801 6.45601 1.89429 6.29665H1.89943L20.2629 0.166365L20.2646 0.168079Z" fill="#FF5E99"/>
</svg>
