<svg width="24" height="24" viewBox="0 0 24 24" fill="none" xmlns="http://www.w3.org/2000/svg">
<path d="M18.975 5.75C19.4325 5.75 19.8713 5.56826 20.1948 5.24476C20.5183 4.92126 20.7 4.4825 20.7 4.025C20.7 3.5675 20.5183 3.12874 20.1948 2.80524C19.8713 2.48174 19.4325 2.3 18.975 2.3C18.5175 2.3 18.0787 2.48174 17.7552 2.80524C17.4317 3.12874 17.25 3.5675 17.25 4.025C17.25 4.4825 17.4317 4.92126 17.7552 5.24476C18.0787 5.56826 18.5175 5.75 18.975 5.75ZM0.678501 11.017L11.0285 0.667C11.4425 0.253 12.0175 0 12.65 0H20.7C21.9765 0 23 1.0235 23 2.3V10.35C23 10.9825 22.747 11.5575 22.3215 11.9715L11.983 22.3215C11.5575 22.7355 10.9825 23 10.35 23C9.7175 23 9.1425 22.7355 8.7285 22.3215L0.678501 14.2715C0.253001 13.8575 4.76837e-07 13.2825 4.76837e-07 12.65C4.76837e-07 12.006 0.264501 11.431 0.678501 11.017Z" fill="black"/>
</svg>
