<svg width="43" height="43" viewBox="0 0 43 43" fill="none" xmlns="http://www.w3.org/2000/svg">
<g clip-path="url(#clip0_1121_509)">
<path fill-rule="evenodd" clip-rule="evenodd" d="M9.24463 27.7585L7.62372 26.1375C7.22186 25.7357 6.99609 25.1906 6.99609 24.6223C6.99609 24.054 7.22186 23.5089 7.62372 23.1071L23.5336 7.19718C23.9355 6.79532 24.4805 6.56956 25.0488 6.56956C25.6172 6.56956 26.1622 6.79532 26.5641 7.19718L28.2498 8.88288C28.4876 9.12085 28.6502 9.42357 28.7172 9.75329C28.7843 10.083 28.7528 10.4252 28.6267 10.7371C28.4282 11.2271 28.379 11.7648 28.4854 12.2826C28.5919 12.8004 28.8491 13.2751 29.2248 13.6471C29.6004 14.019 30.0777 14.2715 30.5965 14.3727C31.1154 14.474 31.6526 14.4195 32.1405 14.2161C32.4419 14.0909 32.7737 14.0579 33.0938 14.1213C33.4139 14.1847 33.7081 14.3416 33.9391 14.5722L35.6555 16.2886C36.0573 16.6904 36.2831 17.2355 36.2831 17.8038C36.2831 18.3721 36.0573 18.9172 35.6555 19.319L19.7455 35.2289C19.3437 35.6308 18.7986 35.8565 18.2303 35.8565C17.662 35.8565 17.117 35.6308 16.7151 35.2289L15.1002 33.6141C14.5813 33.0951 14.4146 32.3201 14.6748 31.6333C14.8581 31.1502 14.8978 30.6244 14.7892 30.1193C14.6805 29.6142 14.4281 29.1513 14.0623 28.7863C13.6966 28.4214 13.2331 28.17 12.7278 28.0624C12.2224 27.9549 11.6967 27.9957 11.2141 28.1801C10.8802 28.3071 10.5167 28.3349 10.1673 28.2601C9.81802 28.1854 9.49773 28.0113 9.24501 27.7588M23.9124 15.1521C24.2138 14.8507 24.3831 14.442 24.3831 14.0157C24.3831 13.5895 24.2138 13.1807 23.9124 12.8793C23.611 12.5779 23.2022 12.4086 22.776 12.4086C22.3498 12.4086 21.941 12.5779 21.6396 12.8793C21.3382 13.1807 21.1689 13.5895 21.1689 14.0157C21.1689 14.442 21.3382 14.8507 21.6396 15.1521C21.941 15.4535 22.3498 15.6229 22.776 15.6229C23.2022 15.6229 23.611 15.4535 23.9124 15.1521ZM26.9429 18.1826C27.2443 17.8812 27.4136 17.4724 27.4136 17.0462C27.4136 16.6199 27.2443 16.2111 26.9429 15.9097C26.6415 15.6084 26.2327 15.439 25.8065 15.439C25.3802 15.439 24.9714 15.6084 24.67 15.9097C24.3686 16.2111 24.1993 16.6199 24.1993 17.0462C24.1993 17.4724 24.3686 17.8812 24.67 18.1826C24.9714 18.484 25.3802 18.6533 25.8065 18.6533C26.2327 18.6533 26.6415 18.484 26.9429 18.1826ZM29.9733 21.213C30.2747 20.9117 30.4441 20.5029 30.4441 20.0766C30.4441 19.6504 30.2747 19.2416 29.9733 18.9402C29.6719 18.6388 29.2632 18.4695 28.8369 18.4695C28.4107 18.4695 28.0019 18.6388 27.7005 18.9402C27.3991 19.2416 27.2298 19.6504 27.2298 20.0766C27.2298 20.5029 27.3991 20.9117 27.7005 21.213C28.0019 21.5144 28.4107 21.6838 28.8369 21.6838C29.2632 21.6838 29.6719 21.5144 29.9733 21.213Z" fill="#FF5593"/>
</g>
<defs>
<clipPath id="clip0_1121_509">
<rect width="30" height="30" fill="white" transform="translate(0.426392 21.2131) rotate(-45)"/>
</clipPath>
</defs>
</svg>
