<svg width="33" height="33" viewBox="0 0 33 33" fill="none" xmlns="http://www.w3.org/2000/svg">
<path fill-rule="evenodd" clip-rule="evenodd" d="M3.11679 23.8131L1.32591 22.0223C0.881905 21.5783 0.632467 20.9761 0.632467 20.3481C0.632467 19.7202 0.881905 19.118 1.32591 18.674L18.9041 1.09585C19.3481 0.65185 19.9503 0.402412 20.5782 0.402412C21.2061 0.402412 21.8083 0.65185 22.2523 1.09585L24.1148 2.9583C24.3776 3.22123 24.5572 3.55569 24.6312 3.91999C24.7053 4.28429 24.6705 4.66233 24.5312 5.007C24.3119 5.54831 24.2576 6.1424 24.3752 6.7145C24.4927 7.2866 24.7769 7.81113 25.192 8.22206C25.607 8.63298 26.1344 8.91194 26.7076 9.02382C27.2808 9.13569 27.8744 9.07548 28.4135 8.85076C28.7465 8.71246 29.113 8.67602 29.4667 8.74605C29.8204 8.81607 30.1454 8.98943 30.4006 9.24418L32.297 11.1405C32.741 11.5845 32.9904 12.1867 32.9904 12.8146C32.9904 13.4426 32.741 14.0447 32.297 14.4888L14.7188 32.0669C14.2748 32.5109 13.6726 32.7604 13.0447 32.7604C12.4168 32.7604 11.8146 32.5109 11.3706 32.0669L9.5864 30.2827C9.01301 29.7094 8.82886 28.8531 9.11639 28.0943C9.31891 27.5605 9.36277 26.9796 9.2427 26.4216C9.12263 25.8635 8.84375 25.352 8.43965 24.9488C8.03555 24.5456 7.52349 24.2678 6.96514 24.149C6.4068 24.0301 5.82599 24.0753 5.29272 24.279C4.92381 24.4193 4.52221 24.45 4.13625 24.3674C3.7503 24.2849 3.39642 24.0925 3.11721 23.8136M19.3226 9.88494C19.6556 9.55194 19.8427 9.10029 19.8427 8.62936C19.8427 8.15842 19.6556 7.70677 19.3226 7.37377C18.9896 7.04077 18.538 6.85369 18.067 6.85369C17.5961 6.85369 17.1444 7.04077 16.8114 7.37377C16.4784 7.70677 16.2914 8.15842 16.2914 8.62936C16.2914 9.10029 16.4784 9.55194 16.8114 9.88494C17.1444 10.2179 17.5961 10.405 18.067 10.405C18.538 10.405 18.9896 10.2179 19.3226 9.88494ZM22.6708 13.2332C23.0038 12.9002 23.1909 12.4485 23.1909 11.9776C23.1909 11.5066 23.0038 11.055 22.6708 10.722C22.3378 10.389 21.8862 10.2019 21.4153 10.2019C20.9443 10.2019 20.4927 10.389 20.1597 10.722C19.8267 11.055 19.6396 11.5066 19.6396 11.9776C19.6396 12.4485 19.8267 12.9002 20.1597 13.2332C20.4927 13.5662 20.9443 13.7532 21.4153 13.7532C21.8862 13.7532 22.3378 13.5662 22.6708 13.2332ZM26.0191 16.5814C26.3521 16.2484 26.5391 15.7967 26.5391 15.3258C26.5391 14.8549 26.3521 14.4032 26.0191 14.0702C25.6861 13.7372 25.2344 13.5501 24.7635 13.5501C24.2925 13.5501 23.8409 13.7372 23.5079 14.0702C23.1749 14.4032 22.9878 14.8549 22.9878 15.3258C22.9878 15.7967 23.1749 16.2484 23.5079 16.5814C23.8409 16.9144 24.2925 17.1015 24.7635 17.1015C25.2344 17.1015 25.6861 16.9144 26.0191 16.5814Z" fill="#FF5593"/>
</svg>

