<svg width="43" height="43" viewBox="0 0 43 43" fill="none" xmlns="http://www.w3.org/2000/svg">
<g clip-path="url(#clip0_1118_549)">
<path fill-rule="evenodd" clip-rule="evenodd" d="M8.81827 28.5453L7.19736 26.9244C6.79549 26.5225 6.56973 25.9775 6.56973 25.4092C6.56973 24.8409 6.79549 24.2958 7.19736 23.894L23.1073 7.98405C23.5091 7.58219 24.0542 7.35642 24.6225 7.35642C25.1908 7.35642 25.7359 7.58219 26.1377 7.98405L27.8234 9.66974C28.0613 9.90772 28.2238 10.2104 28.2909 10.5402C28.3579 10.8699 28.3264 11.212 28.2003 11.524C28.0018 12.0139 27.9527 12.5517 28.0591 13.0695C28.1655 13.5873 28.4227 14.062 28.7984 14.4339C29.174 14.8059 29.6513 15.0583 30.1702 15.1596C30.689 15.2609 31.2262 15.2064 31.7141 15.003C32.0155 14.8778 32.3473 14.8448 32.6674 14.9082C32.9876 14.9716 33.2817 15.1285 33.5127 15.359L35.2291 17.0754C35.631 17.4773 35.8567 18.0223 35.8567 18.5907C35.8567 19.159 35.631 19.704 35.2291 20.1059L19.3192 36.0158C18.9173 36.4176 18.3723 36.6434 17.804 36.6434C17.2356 36.6434 16.6906 36.4176 16.2887 36.0158L14.6739 34.4009C14.1549 33.882 13.9882 33.1069 14.2485 32.4201C14.4318 31.9371 14.4715 31.4113 14.3628 30.9062C14.2541 30.4011 14.0017 29.9382 13.636 29.5732C13.2702 29.2083 12.8067 28.9569 12.3014 28.8493C11.796 28.7417 11.2704 28.7826 10.7877 28.9669C10.4538 29.0939 10.0903 29.1217 9.74099 29.047C9.39166 28.9723 9.07137 28.7982 8.81865 28.5457M23.4861 15.939C23.7875 15.6376 23.9568 15.2288 23.9568 14.8026C23.9568 14.3763 23.7875 13.9676 23.4861 13.6662C23.1847 13.3648 22.7759 13.1954 22.3496 13.1954C21.9234 13.1954 21.5146 13.3648 21.2132 13.6662C20.9118 13.9676 20.7425 14.3763 20.7425 14.8026C20.7425 15.2288 20.9118 15.6376 21.2132 15.939C21.5146 16.2404 21.9234 16.4097 22.3496 16.4097C22.7759 16.4097 23.1847 16.2404 23.4861 15.939ZM26.5165 18.9695C26.8179 18.6681 26.9872 18.2593 26.9872 17.833C26.9872 17.4068 26.8179 16.998 26.5165 16.6966C26.2151 16.3952 25.8063 16.2259 25.3801 16.2259C24.9539 16.2259 24.5451 16.3952 24.2437 16.6966C23.9423 16.998 23.773 17.4068 23.773 17.833C23.773 18.2593 23.9423 18.6681 24.2437 18.9695C24.5451 19.2709 24.9539 19.4402 25.3801 19.4402C25.8063 19.4402 26.2151 19.2709 26.5165 18.9695ZM29.547 21.9999C29.8484 21.6985 30.0177 21.2897 30.0177 20.8635C30.0177 20.4373 29.8484 20.0285 29.547 19.7271C29.2456 19.4257 28.8368 19.2564 28.4106 19.2564C27.9843 19.2564 27.5755 19.4257 27.2741 19.7271C26.9727 20.0285 26.8034 20.4373 26.8034 20.8635C26.8034 21.2897 26.9727 21.6985 27.2741 21.9999C27.5755 22.3013 27.9843 22.4706 28.4106 22.4706C28.8368 22.4706 29.2456 22.3013 29.547 21.9999Z" fill="black"/>
</g>
<defs>
<clipPath id="clip0_1118_549">
<rect width="30" height="30" fill="white" transform="translate(0 22) rotate(-45)"/>
</clipPath>
</defs>
</svg>
