<svg width="10" height="10" viewBox="0 0 10 10" fill="none" xmlns="http://www.w3.org/2000/svg">
<path d="M9.0625 4.375C9.14538 4.375 9.22487 4.34208 9.28347 4.28347C9.34208 4.22487 9.375 4.14538 9.375 4.0625V2.5C9.375 2.33424 9.30915 2.17527 9.19194 2.05806C9.07473 1.94085 8.91576 1.875 8.75 1.875H1.25C1.08424 1.875 0.925268 1.94085 0.808058 2.05806C0.690848 2.17527 0.625 2.33424 0.625 2.5V4.0625C0.625 4.14538 0.657924 4.22487 0.716529 4.28347C0.775134 4.34208 0.85462 4.375 0.9375 4.375C1.10326 4.375 1.26223 4.44085 1.37944 4.55806C1.49665 4.67527 1.5625 4.83424 1.5625 5C1.5625 5.16576 1.49665 5.32473 1.37944 5.44194C1.26223 5.55915 1.10326 5.625 0.9375 5.625C0.85462 5.625 0.775134 5.65792 0.716529 5.71653C0.657924 5.77513 0.625 5.85462 0.625 5.9375V7.5C0.625 7.66576 0.690848 7.82473 0.808058 7.94194C0.925268 8.05915 1.08424 8.125 1.25 8.125H8.75C8.91576 8.125 9.07473 8.05915 9.19194 7.94194C9.30915 7.82473 9.375 7.66576 9.375 7.5V5.9375C9.375 5.85462 9.34208 5.77513 9.28347 5.71653C9.22487 5.65792 9.14538 5.625 9.0625 5.625C8.89674 5.625 8.73777 5.55915 8.62056 5.44194C8.50335 5.32473 8.4375 5.16576 8.4375 5C8.4375 4.83424 8.50335 4.67527 8.62056 4.55806C8.73777 4.44085 8.89674 4.375 9.0625 4.375ZM8.75 6.20938V7.5H6.5625V6.5625H5.9375V7.5H1.25V6.20938C1.5175 6.13946 1.75427 5.98283 1.92326 5.764C2.09224 5.54517 2.18391 5.27648 2.18391 5C2.18391 4.72352 2.09224 4.45483 1.92326 4.236C1.75427 4.01717 1.5175 3.86054 1.25 3.79063V2.5H5.9375V3.4375H6.5625V2.5H8.75V3.79063C8.4825 3.86054 8.24573 4.01717 8.07674 4.236C7.90776 4.45483 7.81609 4.72352 7.81609 5C7.81609 5.27648 7.90776 5.54517 8.07674 5.764C8.24573 5.98283 8.4825 6.13946 8.75 6.20938Z" fill="#4F4F4F"/>
<path d="M5.9375 4.0625H6.5625V5.9375H5.9375V4.0625Z" fill="#4F4F4F"/>
</svg>
