<svg width="14" height="14" viewBox="0 0 10 10" fill="none" xmlns="http://www.w3.org/2000/svg">
<g clip-path="url(#clip0_333_3764)">
<path d="M4.26792 6.79748L2.5 5.02915L3.08917 4.43998L4.26792 5.61831L6.62458 3.26123L7.21417 3.85081L4.26792 6.79748Z" fill="#00DC04"/>
<path fill-rule="evenodd" clip-rule="evenodd" d="M0.416664 5.00008C0.416664 2.46883 2.46875 0.416748 5 0.416748C7.53125 0.416748 9.58333 2.46883 9.58333 5.00008C9.58333 7.53133 7.53125 9.58342 5 9.58342C2.46875 9.58342 0.416664 7.53133 0.416664 5.00008ZM5 8.75008C4.50754 8.75008 4.01991 8.65309 3.56493 8.46463C3.10996 8.27618 2.69657 7.99995 2.34835 7.65173C2.00013 7.30351 1.7239 6.89012 1.53545 6.43514C1.34699 5.98017 1.25 5.49254 1.25 5.00008C1.25 4.50762 1.34699 4.01999 1.53545 3.56502C1.7239 3.11005 2.00013 2.69665 2.34835 2.34843C2.69657 2.00021 3.10996 1.72399 3.56493 1.53553C4.01991 1.34708 4.50754 1.25008 5 1.25008C5.99456 1.25008 6.94839 1.64517 7.65165 2.34843C8.35491 3.05169 8.75 4.00552 8.75 5.00008C8.75 5.99464 8.35491 6.94847 7.65165 7.65173C6.94839 8.35499 5.99456 8.75008 5 8.75008Z" fill="#00DC04"/>
</g>
<defs>
<clipPath id="clip0_333_3764">
<rect width="10" height="10" fill="white"/>
</clipPath>
</defs>
</svg>
