<svg width="225" height="225" viewBox="0 0 225 225" fill="none" xmlns="http://www.w3.org/2000/svg">
<path d="M28.125 28.125H56.25V56.25H28.125V28.125Z" fill="black"/>
<path d="M84.375 0V84.375H0V0H84.375ZM70.3125 14.0625H14.0625V70.3125H70.3125V14.0625ZM56.25 168.75H28.125V196.875H56.25V168.75Z" fill="black"/>
<path d="M84.375 140.625V225H0V140.625H84.375ZM14.0625 154.688V210.938H70.3125V154.688H14.0625ZM168.75 28.125H196.875V56.25H168.75V28.125Z" fill="black"/>
<path d="M140.625 0V84.375H225V0H140.625ZM210.938 14.0625V70.3125H154.688V14.0625H210.938ZM112.5 14.0625V0H126.562V28.125H112.5V56.25H98.4375V14.0625H112.5ZM112.5 84.375V56.25H126.562V84.375H112.5ZM84.375 112.5V98.4375H98.4375V84.375H112.5V112.5H126.562V98.4375H196.875V112.5H140.625V126.562H98.4375V112.5H84.375ZM84.375 112.5V126.562H28.125V112.5H14.0625V126.562H0V98.4375H42.1875V112.5H84.375ZM225 126.562H210.938V98.4375H225V126.562ZM210.938 126.562H196.875V154.688H225V140.625H210.938V126.562ZM154.688 126.562H182.812V140.625H168.75V154.688H154.688V126.562ZM182.812 168.75V154.688H168.75V168.75H154.688V182.812H126.562V196.875H168.75V168.75H182.812ZM182.812 168.75H225V182.812H196.875V196.875H182.812V168.75ZM126.562 154.688V168.75H140.625V140.625H98.4375V154.688H126.562Z" fill="black"/>
<path d="M98.4375 168.75H112.5V210.938H168.75V225H98.4375V168.75ZM225 196.875V225H182.812V210.938H210.938V196.875H225Z" fill="black"/>
</svg>
