<svg width="12" height="13" viewBox="0 0 12 13" fill="none" xmlns="http://www.w3.org/2000/svg">
<path d="M11.4829 12.5005L6.89617 7.91379C6.52994 8.22582 6.10877 8.46729 5.63267 8.63819C5.15656 8.8091 4.67802 8.89456 4.19703 8.89456C3.02411 8.89456 2.03137 8.48853 1.21882 7.67647C0.406275 6.8644 0 5.87191 0 4.69899C0 3.52607 0.405786 2.53308 1.21736 1.72005C2.02893 0.907009 3.02118 0.500002 4.1941 0.499025C5.36703 0.498049 6.36025 0.904323 7.17378 1.71785C7.9873 2.53138 8.39407 3.52436 8.39407 4.69679C8.39407 5.20561 8.30397 5.69807 8.12379 6.17418C7.9436 6.65028 7.70677 7.05753 7.41329 7.39593L12 11.9819L11.4829 12.5005ZM4.19777 8.16136C5.1695 8.16136 5.98987 7.82687 6.65885 7.15788C7.32784 6.48889 7.66233 5.66829 7.66233 4.69606C7.66233 3.72383 7.32784 2.90347 6.65885 2.23497C5.98987 1.56647 5.1695 1.23198 4.19777 1.23149C3.22603 1.231 2.40542 1.5655 1.73595 2.23497C1.06647 2.90445 0.731978 3.72481 0.732467 4.69606C0.732955 5.66731 1.06745 6.48767 1.73595 7.15715C2.40444 7.82662 3.22481 8.16111 4.19703 8.16063" fill="black"/>
</svg>
