<svg width="25" height="28" viewBox="0 0 25 28" fill="none" xmlns="http://www.w3.org/2000/svg">
<path d="M23.1383 2.12766H19.6809V0.797872C19.6809 0.586263 19.5968 0.383321 19.4472 0.233691C19.2975 0.0840612 19.0946 0 18.883 0C18.6714 0 18.4684 0.0840612 18.3188 0.233691C18.1692 0.383321 18.0851 0.586263 18.0851 0.797872V2.12766H6.91489V0.797872C6.91489 0.586263 6.83083 0.383321 6.6812 0.233691C6.53157 0.0840612 6.32863 0 6.11702 0C5.90541 0 5.70247 0.0840612 5.55284 0.233691C5.40321 0.383321 5.31915 0.586263 5.31915 0.797872V2.12766H1.8617C1.36795 2.12766 0.894417 2.3238 0.54528 2.67294C0.196143 3.02208 0 3.49561 0 3.98936V25.266C0 25.7597 0.196143 26.2332 0.54528 26.5824C0.894417 26.9315 1.36795 27.1277 1.8617 27.1277H23.1383C23.6321 27.1277 24.1056 26.9315 24.4547 26.5824C24.8039 26.2332 25 25.7597 25 25.266V3.98936C25 3.49561 24.8039 3.02208 24.4547 2.67294C24.1056 2.3238 23.6321 2.12766 23.1383 2.12766ZM1.8617 3.7234H5.31915V5.05319C5.31915 5.2648 5.40321 5.46774 5.55284 5.61737C5.70247 5.767 5.90541 5.85106 6.11702 5.85106C6.32863 5.85106 6.53157 5.767 6.6812 5.61737C6.83083 5.46774 6.91489 5.2648 6.91489 5.05319V3.7234H18.0851V5.05319C18.0851 5.2648 18.1692 5.46774 18.3188 5.61737C18.4684 5.767 18.6714 5.85106 18.883 5.85106C19.0946 5.85106 19.2975 5.767 19.4472 5.61737C19.5968 5.46774 19.6809 5.2648 19.6809 5.05319V3.7234H23.1383C23.2088 3.7234 23.2765 3.75142 23.3264 3.8013C23.3762 3.85118 23.4043 3.91883 23.4043 3.98936V8.51064H1.59574V3.98936C1.59574 3.91883 1.62376 3.85118 1.67364 3.8013C1.72352 3.75142 1.79117 3.7234 1.8617 3.7234ZM23.1383 25.5319H1.8617C1.79117 25.5319 1.72352 25.5039 1.67364 25.454C1.62376 25.4041 1.59574 25.3365 1.59574 25.266V10.1064H23.4043V25.266C23.4043 25.3365 23.3762 25.4041 23.3264 25.454C23.2765 25.5039 23.2088 25.5319 23.1383 25.5319ZM17.8511 14.0638C18.0005 14.2134 18.0844 14.4162 18.0844 14.6277C18.0844 14.8391 18.0005 15.0419 17.8511 15.1915L11.4681 21.5745C11.3185 21.7239 11.1157 21.8078 10.9043 21.8078C10.6928 21.8078 10.49 21.7239 10.3404 21.5745L7.14894 18.383C7.008 18.2317 6.93127 18.0317 6.93492 17.825C6.93857 17.6183 7.0223 17.4211 7.16849 17.2749C7.31467 17.1287 7.51189 17.045 7.71859 17.0413C7.9253 17.0377 8.12535 17.1144 8.2766 17.2553L10.9043 19.8816L16.7234 14.0638C16.873 13.9144 17.0758 13.8305 17.2872 13.8305C17.4987 13.8305 17.7015 13.9144 17.8511 14.0638Z" fill="#FF5593"/>
</svg>
