<svg width="22" height="23" viewBox="0 0 22 23" fill="none" xmlns="http://www.w3.org/2000/svg">
<path d="M6.72007 8.43359C6.94285 8.43359 7.15651 8.51437 7.31404 8.65815C7.47157 8.80192 7.56007 8.99693 7.56007 9.20026V18.4003C7.56007 18.6036 7.47157 18.7986 7.31404 18.9424C7.15651 19.0862 6.94285 19.1669 6.72007 19.1669C6.49728 19.1669 6.28363 19.0862 6.1261 18.9424C5.96857 18.7986 5.88007 18.6036 5.88007 18.4003V9.20026C5.88007 8.99693 5.96857 8.80192 6.1261 8.65815C6.28363 8.51437 6.49728 8.43359 6.72007 8.43359ZM10.9201 8.43359C11.1428 8.43359 11.3565 8.51437 11.514 8.65815C11.6716 8.80192 11.7601 8.99693 11.7601 9.20026V18.4003C11.7601 18.6036 11.6716 18.7986 11.514 18.9424C11.3565 19.0862 11.1428 19.1669 10.9201 19.1669C10.6973 19.1669 10.4836 19.0862 10.3261 18.9424C10.1686 18.7986 10.0801 18.6036 10.0801 18.4003V9.20026C10.0801 8.99693 10.1686 8.80192 10.3261 8.65815C10.4836 8.51437 10.6973 8.43359 10.9201 8.43359ZM15.9601 9.20026C15.9601 8.99693 15.8716 8.80192 15.714 8.65815C15.5565 8.51437 15.3428 8.43359 15.1201 8.43359C14.8973 8.43359 14.6836 8.51437 14.5261 8.65815C14.3686 8.80192 14.2801 8.99693 14.2801 9.20026V18.4003C14.2801 18.6036 14.3686 18.7986 14.5261 18.9424C14.6836 19.0862 14.8973 19.1669 15.1201 19.1669C15.3428 19.1669 15.5565 19.0862 15.714 18.9424C15.8716 18.7986 15.9601 18.6036 15.9601 18.4003V9.20026Z" fill="#A1A1A1"/>
<path d="M21.84 4.6C21.84 5.00667 21.663 5.39667 21.3479 5.68423C21.0329 5.97179 20.6056 6.13333 20.16 6.13333H19.32V19.9333C19.32 20.7467 18.966 21.5267 18.3359 22.1018C17.7058 22.6769 16.8511 23 15.96 23H5.88C4.98887 23 4.13424 22.6769 3.50412 22.1018C2.874 21.5267 2.52 20.7467 2.52 19.9333V6.13333H1.68C1.23444 6.13333 0.807122 5.97179 0.492061 5.68423C0.176999 5.39667 0 5.00667 0 4.6V3.06667C0 2.66 0.176999 2.26999 0.492061 1.98244C0.807122 1.69488 1.23444 1.53333 1.68 1.53333H7.56C7.56 1.12667 7.737 0.736659 8.05206 0.449103C8.36712 0.161547 8.79444 0 9.24 0L12.6 0C13.0456 0 13.4729 0.161547 13.7879 0.449103C14.103 0.736659 14.28 1.12667 14.28 1.53333H20.16C20.6056 1.53333 21.0329 1.69488 21.3479 1.98244C21.663 2.26999 21.84 2.66 21.84 3.06667V4.6ZM4.39824 6.13333L4.2 6.2238V19.9333C4.2 20.34 4.377 20.73 4.69206 21.0176C5.00712 21.3051 5.43444 21.4667 5.88 21.4667H15.96C16.4056 21.4667 16.8329 21.3051 17.1479 21.0176C17.463 20.73 17.64 20.34 17.64 19.9333V6.2238L17.4418 6.13333H4.39824ZM1.68 4.6H20.16V3.06667H1.68V4.6Z" fill="#A1A1A1"/>
</svg>
