<svg width="33" height="33" viewBox="0 0 35 35" fill="none" xmlns="http://www.w3.org/2000/svg">
<rect x="-0.15" y="0.15" width="34.7" height="34.7" rx="17.35" transform="matrix(-1 0 0 1 34.7 0)" fill="white"/>
<rect x="-0.15" y="0.15" width="34.7" height="34.7" rx="17.35" transform="matrix(-1 0 0 1 34.7 0)" stroke="#A1A1A1" stroke-width="0.3"/>
<path d="M20.3636 23.8699C20.4471 23.8709 20.5298 23.8544 20.6066 23.8216C20.6833 23.7887 20.7523 23.7401 20.8091 23.679C21.0636 23.4244 21.0636 23.0299 20.8091 22.7753L15.5273 17.4935L20.8091 12.2244C21.0636 11.9699 21.0636 11.5753 20.8091 11.3208C20.5545 11.0662 20.16 11.0662 19.9055 11.3208L14.1909 17.0608C13.9364 17.3153 13.9364 17.7099 14.1909 17.9644L19.9182 23.679C20.0455 23.8062 20.2109 23.8699 20.3636 23.8699Z" fill="black"/>
</svg>
