<svg width="33" height="33" viewBox="0 0 35 35" fill="none" xmlns="http://www.w3.org/2000/svg">
<rect x="0.15" y="0.15" width="34.7" height="34.7" rx="17.35" fill="white"/>
<rect x="0.15" y="0.15" width="34.7" height="34.7" rx="17.35" stroke="#A1A1A1" stroke-width="0.3"/>
<path d="M14.6364 23.8699C14.5529 23.8709 14.4702 23.8544 14.3934 23.8216C14.3167 23.7887 14.2477 23.7401 14.1909 23.679C13.9364 23.4244 13.9364 23.0299 14.1909 22.7753L19.4727 17.4935L14.1909 12.2244C13.9364 11.9699 13.9364 11.5753 14.1909 11.3208C14.4455 11.0662 14.84 11.0662 15.0945 11.3208L20.8091 17.0608C21.0636 17.3153 21.0636 17.7099 20.8091 17.9644L15.0818 23.679C14.9545 23.8062 14.7891 23.8699 14.6364 23.8699Z" fill="black"/>
</svg>
