<svg width="10" height="10" viewBox="0 0 10 10" fill="none" xmlns="http://www.w3.org/2000/svg">
<g clip-path="url(#clip0_333_5123)">
<path d="M8.85417 5.00012H3.70625M1.88917 5.00012H1.14584M1.88917 5.00012C1.88917 4.75921 1.98487 4.52817 2.15521 4.35783C2.32556 4.18748 2.5566 4.09178 2.7975 4.09178C3.03841 4.09178 3.26945 4.18748 3.43979 4.35783C3.61014 4.52817 3.70584 4.75921 3.70584 5.00012C3.70584 5.24102 3.61014 5.47206 3.43979 5.64241C3.26945 5.81275 3.03841 5.90845 2.7975 5.90845C2.5566 5.90845 2.32556 5.81275 2.15521 5.64241C1.98487 5.47206 1.88917 5.24102 1.88917 5.00012ZM8.85417 7.75303H6.45917M6.45917 7.75303C6.45917 7.99399 6.36324 8.22529 6.19286 8.39568C6.02247 8.56606 5.79138 8.66178 5.55042 8.66178C5.30951 8.66178 5.07848 8.56567 4.90813 8.39532C4.73779 8.22498 4.64209 7.99394 4.64209 7.75303M6.45917 7.75303C6.45917 7.51207 6.36324 7.28119 6.19286 7.11081C6.02247 6.94042 5.79138 6.8447 5.55042 6.8447C5.30951 6.8447 5.07848 6.9404 4.90813 7.11075C4.73779 7.28109 4.64209 7.51213 4.64209 7.75303M4.64209 7.75303H1.14584M8.85417 2.2472H7.56042M5.74334 2.2472H1.14584M5.74334 2.2472C5.74334 2.0063 5.83904 1.77526 6.00938 1.60491C6.17973 1.43457 6.41076 1.33887 6.65167 1.33887C6.77095 1.33887 6.88907 1.36236 6.99927 1.40801C7.10948 1.45366 7.20961 1.52057 7.29396 1.60491C7.3783 1.68926 7.44521 1.78939 7.49086 1.8996C7.53651 2.0098 7.56 2.12792 7.56 2.2472C7.56 2.36648 7.53651 2.4846 7.49086 2.5948C7.44521 2.70501 7.3783 2.80514 7.29396 2.88949C7.20961 2.97384 7.10948 3.04074 6.99927 3.08639C6.88907 3.13204 6.77095 3.15553 6.65167 3.15553C6.41076 3.15553 6.17973 3.05983 6.00938 2.88949C5.83904 2.71914 5.74334 2.48811 5.74334 2.2472Z" stroke="black" stroke-width="0.7" stroke-miterlimit="10" stroke-linecap="round"/>
</g>
<defs>
<clipPath id="clip0_333_5123">
<rect width="10" height="10" fill="white"/>
</clipPath>
</defs>
</svg>
