<svg width="20" height="18" viewBox="0 0 20 18" fill="none" xmlns="http://www.w3.org/2000/svg">
<path d="M19.7719 9.23175C19.7719 8.59553 19.7082 7.98381 19.5898 7.39648H10.1566V10.8671H15.547C15.3148 11.9886 14.6092 12.9389 13.5484 13.5751V15.8263H16.7853C18.6792 14.2644 19.7719 11.9642 19.7719 9.23175Z" fill="#4285F4"/>
<path d="M10.1565 17.9999C12.8609 17.9999 15.1281 17.1965 16.7852 15.8262L13.5483 13.575C12.6514 14.1133 11.5041 14.4314 10.1565 14.4314C7.54779 14.4314 5.33977 12.8531 4.55211 10.7324H1.20587V13.057C2.854 15.9893 6.2412 17.9999 10.1565 17.9999Z" fill="#34A853"/>
<path d="M4.5521 10.7331C4.35178 10.1947 4.238 9.61972 4.238 9.02836C4.238 8.437 4.35178 7.86197 4.5521 7.32364V4.99902H1.20586C0.527581 6.21027 0.140564 7.5806 0.140564 9.02836C0.140564 10.4761 0.527581 11.8464 1.20586 13.0577L4.5521 10.7331Z" fill="#FBBC04"/>
<path d="M10.1565 3.62419C11.627 3.62419 12.9473 4.07683 13.9854 4.96589L16.8581 2.39248C15.1236 0.944721 12.8563 0.0556641 10.1565 0.0556641C6.2412 0.0556641 2.854 2.06625 1.20587 4.99855L4.55211 7.32316C5.33976 5.20249 7.54779 3.62419 10.1565 3.62419Z" fill="#E94235"/>
</svg>
