<svg width="23" height="20" viewBox="0 0 23 20" fill="none" xmlns="http://www.w3.org/2000/svg">
<path d="M11.5794 0.423828C5.44984 0.423828 0.506653 4.11196 0.506653 8.58939C0.506653 11.4957 2.56302 14.0405 5.64756 15.4936L4.60356 19.1302C4.58388 19.1847 4.58085 19.2432 4.59482 19.2992C4.60879 19.3552 4.6392 19.4065 4.68265 19.4473C4.74601 19.4995 4.82754 19.5283 4.91202 19.5285C4.98206 19.5232 5.04852 19.4974 5.10183 19.4547L9.5942 16.6296C10.2573 16.715 10.9258 16.7593 11.5952 16.7623C17.7168 16.7623 22.6679 13.0742 22.6679 8.58939C22.6679 4.10458 17.701 0.423828 11.5794 0.423828Z" fill="#392020"/>
<path d="M4.38178 7.29887H3.17169C3.02171 7.30293 2.87358 7.2671 2.7446 7.19559C2.68734 7.16213 2.63811 7.11797 2.6 7.06593C2.56189 7.01389 2.53572 6.95506 2.52315 6.89314C2.5193 6.85388 2.5193 6.81444 2.52315 6.77518C2.51939 6.70172 2.53468 6.62846 2.56772 6.56169C2.60076 6.49492 2.65059 6.43659 2.71296 6.3916C2.85085 6.29846 3.01727 6.24926 3.18751 6.2514H6.8336C6.98477 6.24645 7.13391 6.2851 7.26069 6.36206C7.3193 6.39404 7.36957 6.4378 7.40787 6.4901C7.44617 6.5424 7.47153 6.60196 7.48214 6.66452C7.486 6.70131 7.486 6.73839 7.48214 6.77518C7.48587 6.8497 7.47062 6.92396 7.43762 6.99191C7.40463 7.05987 7.35484 7.11952 7.29233 7.16606C7.1578 7.25908 6.99298 7.30602 6.82569 7.29887H5.65515V11.1788C5.6599 11.2615 5.64618 11.3441 5.61487 11.4216C5.58355 11.499 5.53532 11.5696 5.47323 11.6288C5.4137 11.6853 5.34213 11.7297 5.26312 11.7589C5.18412 11.7881 5.09943 11.8016 5.0145 11.7984C4.86597 11.8024 4.72058 11.7581 4.60323 11.6731C4.49152 11.59 4.41569 11.4721 4.38969 11.3411C4.38188 11.2872 4.38188 11.2327 4.38969 11.1788L4.38178 7.29887Z" fill="#FEE500"/>
<path d="M7.83123 6.53856C7.86601 6.41718 7.94771 6.31207 8.06059 6.24349C8.18087 6.17991 8.31793 6.14923 8.45605 6.15498H8.75659C8.90315 6.15008 9.04828 6.18328 9.17577 6.25087C9.31087 6.3356 9.40687 6.46462 9.44468 6.61231L11.0265 10.78C11.0675 10.8887 11.1018 10.9996 11.1293 11.1119C11.132 11.1586 11.132 11.2054 11.1293 11.2521C11.132 11.3239 11.1178 11.3955 11.0878 11.4618C11.0577 11.528 11.0125 11.5874 10.9553 11.6356C10.8999 11.6886 10.8334 11.7304 10.7599 11.7583C10.6864 11.7862 10.6076 11.7997 10.5282 11.7979C10.4062 11.8092 10.2837 11.7819 10.1804 11.7204C10.0771 11.6588 9.99903 11.5666 9.95877 11.4586L9.62659 10.5513H7.5465L7.21432 11.4586C7.17503 11.5687 7.09601 11.6627 6.99073 11.7246C6.88545 11.7865 6.76042 11.8124 6.63695 11.7979C6.50321 11.8012 6.37221 11.7622 6.26522 11.6872C6.16099 11.6099 6.09067 11.4998 6.0675 11.3775C6.0633 11.3358 6.0633 11.2938 6.0675 11.2521C6.05392 11.1788 6.05392 11.104 6.0675 11.0308C6.0675 10.9497 6.12286 10.8611 6.1545 10.78L7.83123 6.53856ZM8.62214 7.50491L7.87077 9.71781H9.36559L8.62214 7.50491Z" fill="#FEE500"/>
<path d="M11.3104 6.77459C11.3024 6.60905 11.365 6.44729 11.4844 6.32464C11.5452 6.26751 11.6181 6.22285 11.6985 6.19363C11.7788 6.16441 11.8649 6.15119 11.9511 6.15491C12.0992 6.1533 12.2438 6.19741 12.3623 6.28034C12.4722 6.36687 12.5452 6.48722 12.568 6.61962C12.5758 6.671 12.5758 6.72321 12.568 6.77459V10.6545H14.743C14.8937 10.6527 15.0419 10.691 15.1701 10.7651C15.2277 10.7982 15.2771 10.8423 15.3153 10.8944C15.3534 10.9465 15.3794 11.0055 15.3915 11.0676C15.3915 11.0676 15.3915 11.1414 15.3915 11.1782C15.3953 11.2517 15.38 11.3249 15.347 11.3916C15.3139 11.4584 15.2641 11.5168 15.2017 11.5618C15.0638 11.655 14.8974 11.7041 14.7272 11.7019H12.0539C11.8836 11.7122 11.7144 11.6708 11.5714 11.584C11.4436 11.4948 11.3584 11.3624 11.3342 11.2152C11.3284 11.1341 11.3284 11.0527 11.3342 10.9717L11.3104 6.77459Z" fill="#FEE500"/>
<path d="M15.534 6.77504C15.5293 6.60998 15.5914 6.44934 15.708 6.3251C15.8266 6.22464 15.9786 6.16532 16.1385 6.15725C16.2985 6.14919 16.4565 6.19284 16.5859 6.28079C16.6982 6.36656 16.7739 6.48686 16.7995 6.62008C16.8034 6.67165 16.8034 6.72347 16.7995 6.77504V8.58221L18.8005 6.42828C18.8776 6.3548 18.9595 6.2859 19.0457 6.22182C19.1269 6.1767 19.22 6.15364 19.3146 6.15536C19.4528 6.15466 19.588 6.19327 19.7021 6.26603C19.7559 6.2998 19.8018 6.34337 19.8371 6.39407C19.8725 6.44476 19.8965 6.50156 19.9078 6.5611C19.911 6.5757 19.911 6.5908 19.9078 6.6054C19.9039 6.62242 19.9039 6.63997 19.9078 6.65699C19.9075 6.73461 19.8857 6.81088 19.8445 6.87832C19.8025 6.94973 19.7521 7.01645 19.6942 7.07741L18.3813 8.41995L19.9631 10.7066V10.7803C20.0452 10.886 20.1093 11.0031 20.1529 11.1271V11.1639C20.1621 11.2494 20.1489 11.3357 20.1144 11.4153C20.08 11.495 20.0254 11.5656 19.9552 11.6213C19.8233 11.7143 19.6619 11.7636 19.4965 11.7615C19.3866 11.7657 19.2775 11.7427 19.1801 11.695C19.0748 11.6291 18.988 11.5406 18.927 11.4368L17.4559 9.22395L16.752 9.90998V11.1418C16.7568 11.3068 16.6946 11.4675 16.578 11.5917C16.5155 11.6487 16.4412 11.6932 16.3596 11.7224C16.278 11.7516 16.1908 11.7649 16.1035 11.7615C15.9575 11.7643 15.815 11.72 15.7001 11.636C15.5884 11.553 15.5126 11.4351 15.4866 11.3041C15.4788 11.2503 15.4788 11.1956 15.4866 11.1418L15.534 6.77504Z" fill="#FEE500"/>
</svg>
