<svg width="26" height="25" viewBox="0 0 26 25" fill="none" xmlns="http://www.w3.org/2000/svg">
<path d="M11.75 15.625C11.75 17.35 14.5488 18.75 18 18.75C21.4512 18.75 24.25 17.35 24.25 15.625M1.75 9.375C1.75 11.1 4.54875 12.5 8 12.5C9.4075 12.5 10.7063 12.2675 11.75 11.875M1.75 13.75C1.75 15.475 4.54875 16.875 8 16.875C9.4075 16.875 10.705 16.6425 11.75 16.25M18 13.75C14.5488 13.75 11.75 12.35 11.75 10.625C11.75 8.9 14.5488 7.5 18 7.5C21.4512 7.5 24.25 8.9 24.25 10.625C24.25 12.35 21.4512 13.75 18 13.75Z" stroke="white" stroke-width="1.875" stroke-linecap="round" stroke-linejoin="round"/>
<path d="M1.75 4.375V18.125C1.75 19.85 4.54875 21.25 8 21.25C9.4075 21.25 10.705 21.0175 11.75 20.625M11.75 20.625V10.625M11.75 20.625C11.75 22.35 14.5488 23.75 18 23.75C21.4512 23.75 24.25 22.35 24.25 20.625V10.625M14.25 8.125V4.375" stroke="white" stroke-width="1.875" stroke-linecap="round" stroke-linejoin="round"/>
<path d="M8 7.5C4.54875 7.5 1.75 6.1 1.75 4.375C1.75 2.65 4.54875 1.25 8 1.25C11.4512 1.25 14.25 2.65 14.25 4.375C14.25 6.1 11.4512 7.5 8 7.5Z" stroke="white" stroke-width="1.875" stroke-linecap="round" stroke-linejoin="round"/>
</svg>
