<svg width="26" height="26" viewBox="0 0 26 26" fill="none" xmlns="http://www.w3.org/2000/svg">
<path fill-rule="evenodd" clip-rule="evenodd" d="M2.64932 18.0887L1.28002 16.7134C0.940536 16.3724 0.744423 15.9154 0.734821 15.4428C0.725219 14.9702 0.902915 14.5208 1.22882 14.1935L14.1314 1.23418C14.4573 0.906843 14.9047 0.728366 15.3752 0.738011C15.8457 0.747655 16.3008 0.94463 16.6402 1.28561L18.0643 2.71589C18.2652 2.91781 18.4049 3.17228 18.466 3.44759C18.527 3.7229 18.5067 4.00688 18.4076 4.26413C18.2515 4.66815 18.22 5.11444 18.3168 5.5468C18.4137 5.97917 18.6346 6.37829 18.9519 6.69393C19.2692 7.00957 19.6686 7.22761 20.0998 7.32061C20.5311 7.41361 20.9749 7.37741 21.3754 7.21657C21.6228 7.1176 21.8969 7.09581 22.163 7.15394C22.4291 7.21208 22.6753 7.34754 22.8704 7.54318L24.3203 8.9995C24.6598 9.34047 24.8559 9.79752 24.8655 10.2701C24.8751 10.7427 24.6974 11.192 24.3715 11.5194L11.469 24.4787C11.1431 24.806 10.6956 24.9845 10.2251 24.9749C9.75465 24.9652 9.29961 24.7682 8.96013 24.4273L7.59595 23.0571C7.15754 22.6168 7.00646 21.9695 7.2103 21.4028C7.35389 21.0043 7.37788 20.5677 7.27937 20.1459C7.18087 19.724 6.96408 19.3348 6.65512 19.0252C6.34617 18.7155 5.95822 18.4986 5.53804 18.4006C5.11785 18.3025 4.68334 18.3276 4.28687 18.4727C4.01259 18.5726 3.71215 18.5896 3.42168 18.5215C3.13122 18.4535 2.8628 18.3029 2.64932 18.0887ZM14.5794 7.85527C14.8238 7.60977 14.9571 7.27273 14.9499 6.9183C14.9427 6.56388 14.7956 6.2211 14.541 5.96536C14.2864 5.70963 13.9451 5.5619 13.5922 5.55467C13.2394 5.54744 12.9038 5.68129 12.6594 5.9268C12.4149 6.1723 12.2817 6.50933 12.2889 6.86376C12.2961 7.21818 12.4432 7.56097 12.6978 7.8167C12.9524 8.07243 13.2937 8.22016 13.6465 8.2274C13.9994 8.23463 14.335 8.10077 14.5794 7.85527ZM17.1394 10.4266C17.3839 10.1811 17.5171 9.84403 17.5099 9.4896C17.5027 9.13518 17.3557 8.79239 17.101 8.53666C16.8464 8.28093 16.5051 8.1332 16.1523 8.12597C15.7994 8.11873 15.4638 8.25259 15.2194 8.49809C14.975 8.7436 14.8417 9.08063 14.8489 9.43506C14.8561 9.78948 15.0032 10.1323 15.2578 10.388C15.5124 10.6437 15.8537 10.7915 16.2066 10.7987C16.5595 10.8059 16.895 10.6721 17.1394 10.4266ZM19.6995 12.9979C19.9439 12.7524 20.0772 12.4153 20.07 12.0609C20.0628 11.7065 19.9157 11.3637 19.6611 11.108C19.4065 10.8522 19.0652 10.7045 18.7123 10.6973C18.3594 10.69 18.0239 10.8239 17.7795 11.0694C17.535 11.3149 17.4018 11.6519 17.409 12.0064C17.4162 12.3608 17.5632 12.7036 17.8179 12.9593C18.0725 13.215 18.4137 13.3628 18.7666 13.37C19.1195 13.3772 19.455 13.2434 19.6995 12.9979Z" fill="white"/>
</svg>
